<?xml version="1.0" encoding="utf-8"?>
<!-- Generator: Adobe Illustrator 21.1.0, SVG Export Plug-In . SVG Version: 6.00 Build 0)  -->
<svg version="1.1" id="Layer_1" xmlns="http://www.w3.org/2000/svg" xmlns:xlink="http://www.w3.org/1999/xlink" x="0px" y="0px"
	 viewBox="0 0 352.5 66" style="enable-background:new 0 0 352.5 66;" xml:space="preserve">
<style type="text/css">
	.st0{fill:#BC9451;}
	.st1{fill:#80BB7B;}
	.st2{fill:#A4B995;}
</style>
<g>
	<g>
		<path d="M65.8,52l0.4,0l0.3,0l0.4,0.1l0.3,0.1l0.7,0.4l0,0.7l-0.2,0.2l-0.5,0.1l-0.4-0.2l-0.3-0.1L66,53.4h-0.3l-0.4-0.1l-0.6,0
			l-0.4,0l-0.3,0.1l-0.3,0.1l-0.3,0.1L63,53.8L62.8,54l-0.2,0.2l-0.2,0.2l-0.2,0.3l-0.1,0.2l-0.2,0.3l-0.1,0.3l0,0.4l-0.1,0.3v0.3
			L61.6,57l0,0.3l0,0.7l0,0.3l0.1,0.3V59l0.1,0.3l0,0.3l0.1,0.3l0.1,0.3l0.2,0.3l0.2,0.3l0.1,0.2l0.3,0.3l0.3,0.2l0.2,0.2l0.3,0.1
			l0.4,0.1l0.3,0l0.4,0.1l0.6,0l0.3-0.1L66,62l0.3,0l0.3-0.1l0.5-0.2l0.4,0.1l0.3,0.3l0,0.6l-0.2,0.3L67,63.2l-0.6,0.1l-0.3,0
			l-0.4,0.1l-0.3,0l-0.7,0l-0.3,0L64,63.3l-0.7-0.1L63,63.1L62.7,63l-0.3-0.1l-0.3-0.2l-0.2-0.1l-0.2-0.2l-0.3-0.2l-0.2-0.2
			l-0.3-0.3l-0.1-0.3L60.6,61l-0.1-0.3l-0.2-0.3L60.2,60l-0.1-0.3l-0.1-0.3L60,59l-0.1-0.3l0-0.4L59.9,58l0-0.6l0-0.3l0-0.3l0.1-0.4
			l0.1-0.3l0.1-0.3l0-0.4l0.1-0.2l0.2-0.3l0.1-0.3l0.2-0.3l0.1-0.2l0.2-0.3l0.2-0.2l0.3-0.2l0.2-0.2l0.3-0.2l0.3-0.2l0.3-0.1
			l0.3-0.2l0.3-0.1l0.7-0.1l0.4,0l0.3-0.1l0.7,0L65.8,52z"/>
		<path d="M76.9,62.4L76.8,63l-0.2,0.3h-0.7l-0.3-0.1l-0.3-0.1l-0.5-0.5l-0.1-0.3l-0.2,0.2l-0.2,0.2l-0.6,0.4l-0.3,0L73,63.3
			l-0.4,0.1l-0.7,0l-0.3-0.1l-0.3-0.1l-0.3-0.1l-0.3-0.2l-0.3-0.2l-0.4-0.5L70,61.9l-0.1-0.3l-0.1-0.4l0-0.7l0.1-0.3l0.1-0.3
			l0.1-0.3l0.1-0.3l0.2-0.2l0.3-0.2l0.6-0.3l0.3,0l0.4-0.1l0.4,0l0.3,0H73l0.7,0l0.3,0l0.2,0l0.3-0.3l0-0.2l0-0.6l-0.1-0.4l-0.2-0.3
			l-0.2-0.2L73.5,56l-0.3-0.1h-0.7l-0.3,0L71.9,56l-0.3,0.1l-0.3,0l-0.5,0.1l-0.4-0.1l-0.2-0.2l0-0.6l0.6-0.3l0.3-0.1l0.3-0.1l0.3,0
			l0.3-0.1l0.4,0l0.3,0l0.7,0l0.3,0.1l0.4,0l0.3,0.1l0.3,0.1l0.3,0.2l0.3,0.2l0.2,0.2l0.2,0.3l0.1,0.3l0.1,0.3l0,0.3l0.1,0.7l0,0.3
			l0,0.3v0.4l0.1,0.4l0,0.3l0,0.4l0,0.3v0.4l0,0.4V61l0,0.7l0.2,0.2l0.5,0.2L76.9,62.4z M74.1,59.3h-0.3l-0.6,0l-0.3,0l-0.3,0
			l-0.4,0.1l-0.3,0.1l-0.2,0.2l-0.2,0.3l-0.1,0.3v0.7l0.1,0.3l0.1,0.3L72,62l0.3,0.1l0.7,0l0.3,0l0.3-0.1l0.3-0.1l0.2-0.2l0.2-0.3
			l0.2-0.3l0.1-0.3v-1.1L74.1,59.3z"/>
		<path d="M85.9,60.4l-0.1,0.3l0,0.3l-0.1,0.3l-0.1,0.3l-0.2,0.3l-0.2,0.3L85,62.4l-0.5,0.4L84.1,63l-0.3,0l-0.3,0.1l-0.3,0
			l-0.7,0.1l-0.7,0l-0.3,0l-0.3-0.1l-0.4-0.1l-0.3-0.1l-0.3-0.2L80,62.7l-0.3-0.2l-0.2-0.3l-0.1-0.2l-0.1-0.3l-0.1-0.3L79.1,61
			L79,60.7l0-0.3V59l0-0.3l0-0.3V58l0-0.3l0-0.2l0-0.3l0-0.3l0-0.3l0-0.3l0-0.3v-0.3l0-0.6l0-0.3l0-0.4l0.1-0.3l0-0.3l0.2-0.3
			l0.1-0.3l0.2-0.2l0.2-0.3l0.2-0.2l0.3-0.2l0.2-0.2l0.3-0.1l0.3-0.1l0.3-0.1l0.4,0h0.6l0.3,0l0.4,0.1l0.3,0.1l0.3,0.1l0.3,0.1
			l0.3,0.2l0.2,0.2l0.1,0.2l0.2,0.3l0.1,0.3l0.2,0.3l0.1,0.3l0,0.4l0,0.6l-0.1,0.3l0,0.3l-0.2,0.3L85,55.9l-0.2,0.2l-0.5,0.4
			L84,56.6l-0.8,0.2l0.1,0l0.3,0l0.3,0.1l0.3,0.1l0.3,0.1l0.2,0.2l0.2,0.2l0.5,0.5l0.1,0.3l0.1,0.3l0.2,0.3l0,0.3l0,0.3L85.9,60.4z
			 M80.5,55.6l-0.1,0.3l0,0.3l0,0.3l0.3,0.3l0.4-0.1l0.3,0l1-0.2l0.4-0.1l0.2-0.2l0.3-0.2l0.1-0.2l0.2-0.3l0.1-0.3l0-0.4l0-0.6
			l0-0.4l-0.1-0.3L83.5,53l-0.3-0.2l-0.3-0.2l-0.3,0l-0.7,0l-0.3,0l-0.3,0.1L80.9,53l-0.3,0.5l-0.1,0.3l-0.1,0.3l0,0.3l0,0.7
			L80.5,55.6z M84.3,59.6l-0.1-0.4l-0.1-0.3L84,58.5l-0.2-0.2L83.5,58l-0.3-0.2l-0.3-0.1l-0.3,0l-0.7,0l-0.3,0l-0.4,0l-0.4,0.1
			l-0.3,0.5l0,0.3l0,0.4v0.3l0,0.3l0,0.6l0.1,0.4l0.1,0.3l0.1,0.3l0.2,0.3l0.2,0.2l0.3,0.2l0.2,0.1l0.4,0.1l0.7,0l0.3-0.1l0.3-0.1
			l0.2-0.2l0.2-0.3l0.2-0.3l0.1-0.3l0.1-0.3l0-0.3L84.3,59.6z"/>
		<path d="M89.9,63.2l-0.3,0L89.4,63l-0.2-0.1l-0.3-0.2l-0.2-0.3l-0.1-0.3l-0.2-0.3l-0.1-0.3l0-0.3l-0.1-0.4L88,60.6l0-0.7l0-0.3
			l0-0.3l0-0.3l0-0.4l0-0.3v-0.4l0-0.3l0-0.3v-0.3l0-0.3l0-0.4l0-0.3v-0.6l0.2-0.3l0.2-0.1l0.6,0l0.2,0.1l0.1,0.3l0.1,0.6l0,0.4
			l0,0.3l-0.1,0.4l0,0.4l0,0.3l0,0.7l0,0.3l0,0.4l0,0.3v1l0,0.3l0.1,0.3l0.1,0.4l0.2,0.2l0.2,0.2l0.2,0.2l0.3,0.1h0.7l0.3-0.1
			l0.2-0.1l0.3-0.2l0.3-0.3l0.2-0.2l0.1-0.3l0.2-0.3l0-0.3l0.1-0.3l0-0.3v-0.7l-0.1-0.3l0-0.3l0-0.3l0-0.3l0-0.4v-0.4l0-0.3l0-0.3
			l0-0.4l0-0.6l0.2-0.3l0.3-0.1l0.6,0l0.2,0.1l0.2,0.2l0.1,0.7l0,0.3l0,0.3l0,0.3v0.3l0,0.3l0,0.4l0,0.3l0,0.4l0,0.3v0.3l-0.1,0.4
			v0.3l0.1,0.3v0.3l-0.1,0.3l0,0.4l0,0.3l0,0.3l0,0.3l-0.1,0.7l-0.2,0.3l-0.7,0L93.3,63l-0.1-0.6l-0.3-0.1l-0.2,0.2l-0.2,0.2
			l-0.2,0.1l-0.3,0.2l-0.6,0.2l-0.4,0h-0.6L89.9,63.2z"/>
		<path d="M108.3,61.6l0,0.3v0.3l-0.1,0.6l-0.2,0.3l-0.2,0.2l-0.6,0l-0.2-0.2l-0.1-0.2l-0.1-0.6v-0.3l0-0.4l-0.1-0.3v-0.3l0-0.3
			v-0.4l0-0.3v-0.3l0-0.7v-0.4l0-0.7l0-0.3l-0.1-0.3l-0.1-0.3l-0.1-0.3l-0.2-0.2l-0.3-0.2l-0.3-0.1l-0.6,0l-0.3,0.1l-0.3,0.2
			l-0.2,0.2l-0.2,0.3l-0.1,0.3l-0.1,0.3l-0.1,0.3l-0.1,0.4l-0.1,0.3l0.1,0.7v0.6l-0.1,0.3l0,0.3l0,0.4l0,0.3l0,0.3l0,0.3l0,0.3
			l0,0.7l-0.2,0.2l-0.2,0.2l-0.6,0l-0.3-0.2l-0.1-0.2l0-0.7v-1.4l0-0.4l-0.1-0.7l0-0.3l0-0.4l0-0.3l0-0.3l0-0.7l0-0.3l0-0.3l0-0.3
			l-0.1-0.3l-0.2-0.3l-0.6-0.2h-0.6l-0.3,0.1l-0.3,0.2l-0.2,0.2l-0.3,0.5l-0.1,0.4l-0.1,0.3l0,0.3l0,0.4l0,0.7l0,0.4l0,0.3l0,0.4
			l0,0.3l0,0.4l0,0.3l0,0.4l0,0.3l0,0.3l-0.1,0.6l-0.2,0.2l-0.2,0.1l-0.6,0l-0.2-0.2l-0.2-0.2l0-0.6l0-0.3l0-0.3v-0.3l0-0.3l0-0.3
			l0-0.3l0-0.3l0-0.4l0-0.3l-0.1-0.3l0-0.3l0-0.4v-0.3l0-0.3l0-0.3l0-0.3l0.1-0.7l0-0.3l0.1-0.7l0.3-0.3l0.6,0l0.3,0.2l0.2,0.6
			l0.2,0.1l0.2-0.2l0.2-0.2l0.2-0.2l0.3-0.1l0.2-0.2l0.3-0.1l0.3,0l0.6,0.1l0.4,0l0.3,0.1l0.3,0.2l0.5,0.6l0.1,0.3l0,0.2l0.2-0.3
			l0.4-0.5l0.3-0.1l0.2-0.1l0.3-0.1l0.3,0l0.4-0.1l0.7,0l0.3,0l0.3,0.1l0.3,0.2l0.3,0.3l0.2,0.2l0.2,0.3l0.1,0.3l0.2,0.4l0.1,0.4
			l0.1,0.3v0.4l0,0.6v0.4l0,0.3v0.4l0,0.3l0,0.3l-0.1,0.3l0,0.3l0,0.4l0,0.3L108.3,61.6z"/>
		<path d="M115.2,62.1l0.4-0.1l0.4-0.1l0.4,0l0.3,0.3l-0.1,0.6l-0.6,0.3l-0.3,0.1l-0.4,0.1l-0.3,0l-0.3,0l-0.7-0.1l-0.3,0l-0.4-0.1
			l-0.3,0l-0.2-0.1l-0.3-0.1l-0.3-0.2l-0.3-0.1l-0.2-0.3l-0.3-0.3l-0.2-0.2l-0.1-0.3l-0.2-0.3l-0.1-0.4l0-0.3l-0.1-0.3l0-0.3l0-0.4
			l0-0.6l0-0.3v-0.4l0.1-0.3l0.1-0.3l0.1-0.3l0.1-0.3l0.1-0.3l0.2-0.3l0.2-0.2l0.5-0.4l0.2-0.2l0.2-0.2l0.3-0.1L113,55l0.6-0.2
			l0.3,0l0.6,0l0.3,0.1h0.3l0.6,0.1l0.7,0.3l0,0.7l-0.2,0.2l-0.4,0.1l-0.5-0.1l-0.3-0.1h-0.4l-0.6,0l-0.4,0l-0.3,0.1l-0.3,0.2
			l-0.2,0.2l-0.2,0.2l-0.2,0.3l-0.2,0.3l-0.1,0.3l0,0.3l0,0.4v0.3l0,0.7l0,0.3l0.1,0.3l0,0.3l0.1,0.3l0.2,0.3l0.1,0.3l0.2,0.3
			l0.3,0.2l0.2,0.2l0.3,0.1l0.6,0.1l0.7,0L115.2,62.1z"/>
		<path d="M124.8,62.8l-0.1,0.3l-0.3,0.2l-0.6-0.1l-0.2-0.1l-0.3-0.4l-0.2-0.3L123,62l-0.1-0.3l-0.2-0.3l-0.2-0.2l-0.1-0.3l-0.2-0.2
			l-0.1-0.3l-0.1-0.3l-0.2-0.3l-0.5-0.2l-0.4-0.1l-0.4,0.4V60l0,0.4v0.3l0,0.3l0,0.3v0.3l0,0.3l0,0.3l0,0.6l-0.1,0.2l-0.2,0.2
			l-0.6,0l-0.2-0.1l-0.2-0.2l0-0.6l0-0.3l0-0.3v-0.3l0.1-0.3l-0.1-0.3l0.1-0.3l0-0.3l0-0.3l0-0.3l0-0.3l0-0.3l0-0.4l0-0.3l0-0.4
			v-0.3l0-0.3l0-0.4v-0.3l0-0.3l0-0.3l0-0.3l0-0.3l0-0.4l0-0.3l0-0.3l0-0.4v-0.3l0-0.3l0-0.4l0-0.6l0.2-0.2l0.2-0.2l0.6,0l0.3,0.1
			l0.1,0.3l0.1,0.6l0,0.4l-0.1,0.3l0.1,0.4l-0.1,0.3v0.6l0.1,0.3l0,0.3l0,0.3l0.1,0.3l0,0.3l0,0.4l0,0.3l-0.1,0.3l0.1,0.3l-0.1,0.3
			l0.3,0.3l0.3,0h0.3l0.5-0.3l0.1-0.2l0.1-0.3l0.2-0.3l0.2-0.3l0.1-0.2l0.2-0.3l0.2-0.2l0.1-0.3l0.3-0.6l0.3-0.1l0.7,0l0.2,0.3
			l0,0.3l-0.3,0.6l-0.1,0.3l-0.4,0.6l-0.2,0.3l-0.2,0.3l-0.1,0.2l-0.2,0.3l-0.2,0.3L123,59l0.2,0.3l0.1,0.2l0.2,0.3l0.1,0.3l0.1,0.3
			l0.3,0.5l0.1,0.3l0.2,0.3l0.2,0.3l0.2,0.5L124.8,62.8z"/>
		<path d="M129.2,63.2l-0.3,0l-0.3-0.2l-0.2-0.1l-0.3-0.2l-0.2-0.3l-0.1-0.3l-0.2-0.3l-0.1-0.3l0-0.3l-0.1-0.4l-0.1-0.3l0-0.7l0-0.3
			l0-0.3l0-0.3l0-0.4l0-0.3v-0.4l0-0.3l0-0.3v-0.3l0-0.3l0-0.4l0-0.3v-0.6l0.2-0.3l0.2-0.1l0.6,0l0.2,0.1l0.2,0.3l0.1,0.6l0,0.4
			l0,0.3l-0.1,0.4l0,0.4l0,0.3l0,0.7l0,0.3l0,0.4l0,0.3v1l0,0.3l0.1,0.3l0.1,0.4l0.2,0.2l0.2,0.2l0.2,0.2l0.3,0.1h0.7L131,62
			l0.2-0.1l0.3-0.2l0.3-0.3l0.2-0.2l0.1-0.3l0.2-0.3l0-0.3l0.1-0.3l0-0.3v-0.7l-0.1-0.3l0-0.3l0-0.3l0-0.3l0-0.4v-0.4l0-0.3l0-0.3
			l0-0.4l0-0.6l0.2-0.3l0.3-0.1l0.6,0l0.2,0.1l0.2,0.2l0.1,0.7l0,0.3l0,0.3l0,0.3v0.3l0,0.3l0,0.4l0,0.3l0,0.4l0,0.3v0.3l-0.1,0.4
			v0.3l0.1,0.3v0.3l-0.1,0.3l0,0.4l0,0.3l0,0.3l0,0.3l-0.1,0.7l-0.2,0.3l-0.7,0l-0.2-0.2l-0.1-0.6l-0.3-0.1l-0.2,0.2l-0.2,0.2
			l-0.2,0.1l-0.3,0.2l-0.6,0.2l-0.4,0h-0.6L129.2,63.2z"/>
		<path d="M138.5,63.2l-0.3,0l-0.3-0.2l-0.2-0.1l-0.3-0.2l-0.2-0.3l-0.1-0.3l-0.2-0.3l-0.1-0.3l0-0.3l-0.1-0.4l-0.1-0.3l0-0.7l0-0.3
			l0-0.3l0-0.3l0-0.4l0-0.3v-0.4l0-0.3l0-0.3v-0.3l0-0.3l0-0.4l0-0.3v-0.6l0.2-0.3l0.2-0.1l0.6,0l0.2,0.1l0.1,0.3l0.1,0.6l0,0.4
			l0,0.3l-0.1,0.4l0,0.4l0,0.3l0,0.7l0,0.3l0,0.4l0,0.3v1l0,0.3l0.1,0.3l0.1,0.4l0.2,0.2l0.2,0.2L139,62l0.3,0.1h0.7l0.3-0.1
			l0.2-0.1l0.3-0.2l0.3-0.3l0.2-0.2l0.1-0.3l0.2-0.3l0-0.3l0.1-0.3l0-0.3v-0.7l-0.1-0.3l0-0.3l0-0.3l0-0.3l0-0.4v-0.4l0-0.3l0-0.3
			l0-0.4l0-0.6l0.2-0.3l0.3-0.1l0.6,0L143,55l0.2,0.2l0.1,0.7l0,0.3l0,0.3l0,0.3v0.3l0,0.3l0,0.4l0,0.3l0,0.4l0,0.3v0.3l-0.1,0.4
			v0.3l0.1,0.3v0.3l-0.1,0.3l0,0.4l0,0.3l0,0.3l0,0.3l-0.1,0.7l-0.2,0.3l-0.7,0l-0.2-0.2l-0.1-0.6l-0.3-0.1l-0.2,0.2l-0.2,0.2
			l-0.2,0.1l-0.3,0.2l-0.6,0.2l-0.4,0h-0.6L138.5,63.2z M137.9,52.5l0.6,0l0.3,0.1l0.3,0l0.3,0.1l0.4,0l0.3,0l0.3,0l0.3,0l0.3-0.1
			l0.6,0l0.3,0.1l-0.1,0.6l-0.6,0.3H141l-0.3,0.1l-0.3,0l-0.3,0l-0.4,0l-0.3,0l-0.3,0l-0.3,0l-0.3-0.1l-0.5-0.2l0-0.5L137.9,52.5z"
			/>
	</g>
	<g>
		<path d="M217.8,62.1l0,0.6l-0.2,0.3l-0.3,0.2l-0.6,0l-0.2-0.2l-0.1-0.2l-0.1-0.6v-0.3l0-0.4l0-0.3v-0.3l0-0.3l0-0.3l0-0.3l0-0.4
			l-0.1-0.3l0-0.4l-0.1-0.6l0-0.3l-0.1-0.3l0-0.4v-0.3l0-0.3l0-0.3v-0.4l0-0.3v-0.6l0-0.3l0-0.4l0-0.3v-0.2l0,0.2l-0.1,0.3l-0.1,0.3
			l-0.1,0.3l0,0.4l-0.1,0.3l-0.1,0.3l-0.4,1.3l-0.1,0.3l-0.1,0.3l0,0.3l-0.1,0.3l0,0.3l-0.1,0.3l-0.1,0.3l-0.1,0.3l0,0.3l-0.1,0.3
			l-0.1,0.3l-0.1,0.2l-0.1,0.3l-0.3,0.7l-0.2,0.3l-0.3,0.1l-0.7,0.1l-0.2-0.1l-0.3-0.2l-0.1-0.2l-0.2-0.6l0-0.3l-0.1-0.3l-0.1-0.3
			l-0.2-0.6l-0.1-0.3l-0.1-0.3l-0.1-0.3l-0.1-0.3l0-0.3l-0.1-0.3l0-0.2l-0.1-0.3l0-0.3l-0.3-1l-0.2-0.6l0-0.3l-0.1-0.3l-0.1-0.3
			l-0.2-0.6l0,0.2l0,0.3l0,0.4l0,0.3l0,0.3l0,0.3l0,0.4l-0.1,0.3l0,0.3l0,0.3l0,0.3l0,0.4l0,0.4l0,0.3v1.3l0,0.3l0,0.4v0.3l-0.1,0.4
			l0,0.3l0,0.3l0,0.4l0,0.3l-0.1,0.7l-0.3,0.2l-0.7,0.1l-0.2-0.2l-0.2-0.3l0-0.6v-0.3l0-0.3l0-0.3v-0.3l0-0.4l0-0.3l0-0.3l0-0.3
			l0-0.4v-0.3l0-0.4l0-0.3v-0.6l0-0.4l0-0.3l0-0.3l0-0.3l0-0.3l0.1-0.4V55l0-0.3l0-0.3l0-0.4l0-0.3l0.1-0.6l0.1-0.3l0.2-0.3l0.2-0.2
			l0.3-0.1l0.7,0l0.3,0.2l0.3,0.2l0.2,0.3l0.2,0.6l0.1,0.4l0.1,0.3l0.1,0.3l0,0.3l0.2,0.3l0,0.3l0.1,0.3l0.1,0.3l0.1,0.3l0.1,0.3
			l0.1,0.2l0.1,0.3l0.1,0.3l0.1,0.3l0,0.3l0.1,0.3l0.1,0.3l0.2,0.7l0,0.3l0.1,0.3l0.1,0.3h0.2l0.1-0.3l0.1-0.4l0.2-0.3l0.1-0.2
			l0.1-0.3l0.1-0.3l0-0.4l0.1-0.3l0.1-0.3l0.1-0.3l0.1-0.3l0-0.3l0.2-0.3l0.1-0.4l0.1-0.3l0.1-0.3l0.2-0.7l0.1-0.3l0.1-0.3l0.1-0.3
			l0.1-0.3l0.2-0.6l0.2-0.2l0.2-0.2l0.3-0.1l0.6,0.1l0.3,0.1l0.2,0.2l0.3,0.2l0.1,0.3l0.1,0.6l0,0.3l0,0.3l0.1,0.4l0,0.3l0,0.3
			l0,0.4l0,0.3l0,0.3l0.1,0.3l0,0.3l0,0.3l0,0.3l0.1,0.3l0,0.3l0,0.3l0,0.3l0,0.3l0,0.3l0,0.3l0,0.3l0.1,0.3v0.3l0,0.4v0.3l0,0.4
			L217.8,62.1z"/>
		<path d="M227.2,62.4l-0.1,0.6l-0.2,0.3h-0.7l-0.3-0.1l-0.3-0.1l-0.5-0.5l-0.1-0.3l-0.2,0.2l-0.2,0.2l-0.6,0.4l-0.3,0l-0.3,0.1
			l-0.4,0.1l-0.7,0l-0.3-0.1l-0.3-0.1l-0.3-0.1l-0.3-0.2l-0.3-0.2l-0.4-0.5l-0.1-0.3l-0.1-0.3l-0.1-0.4l0-0.7l0.1-0.3l0.1-0.3
			l0.1-0.3l0.1-0.3l0.2-0.2l0.3-0.2l0.6-0.3l0.3,0l0.4-0.1l0.4,0l0.3,0h0.3l0.7,0l0.3,0l0.2,0l0.3-0.3l0-0.2l0-0.6l-0.1-0.4
			l-0.2-0.3l-0.2-0.2l-0.6-0.2l-0.3-0.1h-0.7l-0.3,0l-0.3,0.1l-0.3,0.1l-0.3,0l-0.5,0.1l-0.4-0.1l-0.2-0.2l0-0.6l0.6-0.3l0.3-0.1
			l0.3-0.1l0.3,0l0.3-0.1l0.4,0l0.3,0l0.7,0l0.3,0.1l0.4,0l0.3,0.1l0.3,0.1l0.3,0.2l0.3,0.2l0.2,0.2l0.2,0.3l0.1,0.3l0.1,0.3l0,0.3
			l0.1,0.7l0,0.3l0,0.3v0.4l0.1,0.4l0,0.3l0,0.4l0,0.3v0.4l0,0.4V61l0,0.7l0.2,0.2l0.5,0.2L227.2,62.4z M224.4,59.3h-0.3l-0.6,0
			l-0.3,0l-0.3,0l-0.4,0.1l-0.3,0.1l-0.2,0.2l-0.2,0.3l-0.1,0.3v0.7l0.1,0.3l0.1,0.3l0.3,0.2l0.2,0.1l0.7,0l0.3,0l0.3-0.1l0.3-0.1
			l0.2-0.2l0.2-0.3l0.1-0.3l0.1-0.3v-1.1L224.4,59.3z"/>
		<path d="M240.1,61.2l-0.1,0.7l0,0.3l-0.1,0.7l-0.3,0.3l-0.6,0l-0.3-0.2l-0.2-0.6l-0.2-0.1l-0.2,0.2l-0.2,0.2l-0.2,0.2l-0.3,0.1
			l-0.2,0.2l-0.3,0.1l-0.3,0l-0.6-0.1l-0.4,0l-0.3-0.1l-0.3-0.2l-0.5-0.6l-0.1-0.3l0-0.2l-0.2,0.3l-0.4,0.5l-0.3,0.1L233,63
			l-0.3,0.1l-0.3,0l-0.4,0.1l-0.7,0l-0.3,0l-0.3-0.1l-0.3-0.2l-0.3-0.3l-0.2-0.2l-0.2-0.3l-0.1-0.3l-0.2-0.4l-0.1-0.4l0-0.3v-0.4
			l0-0.6v-0.4l0-0.3v-0.4l0-0.3l0-0.3l0-0.3l0-0.3l0-0.4l0-0.3l0.1-0.3l0-0.3v-0.3l0-0.6l0.2-0.3l0.2-0.2l0.6,0l0.2,0.2l0.1,0.2
			l0.1,0.6v0.3l0,0.4l0.1,0.3v0.3l0,0.3V58l0,0.3v0.3l0,0.7v0.4l0,0.7l0,0.3l0.1,0.3l0.1,0.3l0.1,0.3l0.2,0.2l0.3,0.2l0.3,0.1l0.6,0
			l0.3-0.1l0.3-0.2l0.2-0.2l0.2-0.3l0.1-0.3l0.1-0.3l0.1-0.3l0.1-0.4l0.1-0.3l-0.1-0.7v-0.6l0.1-0.3l0-0.3l0-0.4l0-0.3l0-0.3l0-0.3
			l0-0.3l0-0.7l0.2-0.2l0.2-0.2l0.6,0l0.3,0.2l0.1,0.2l0,0.7v1.4l0,0.4l0.1,0.7l0,0.3l0,0.4l0,0.3l0,0.3l0,0.7l0,0.3l0,0.3l0,0.3
			l0.1,0.3l0.2,0.3l0.6,0.2h0.6l0.3-0.1l0.3-0.2l0.2-0.2l0.3-0.5l0.1-0.4l0.1-0.3l0-0.3l0-0.4l0-0.7l0-0.4l0-0.3l0-0.4l0-0.3l0-0.4
			l0-0.3l0-0.4l0-0.3l0-0.3l0.1-0.6l0.2-0.2l0.2-0.1l0.6,0l0.2,0.2l0.2,0.2l0,0.6l0,0.3l0,0.3v0.3l0,0.3l0,0.3l0,0.3l0,0.3l0,0.4
			l0,0.3l0.1,0.3l0,0.3l0,0.4v0.3l0,0.3l0,0.3L240.1,61.2z"/>
		<path d="M249.5,62.4l-0.1,0.6l-0.2,0.3h-0.7l-0.3-0.1l-0.3-0.1l-0.5-0.5l-0.1-0.3l-0.2,0.2l-0.2,0.2l-0.6,0.4l-0.3,0l-0.3,0.1
			l-0.4,0.1l-0.7,0l-0.3-0.1l-0.3-0.1l-0.3-0.1l-0.3-0.2l-0.3-0.2l-0.4-0.5l-0.1-0.3l-0.1-0.3l-0.1-0.4l0-0.7l0.1-0.3l0.1-0.3
			l0.1-0.3l0.1-0.3l0.2-0.2l0.3-0.2l0.6-0.3l0.3,0l0.4-0.1l0.4,0l0.3,0h0.3l0.7,0l0.3,0l0.2,0l0.3-0.3l0-0.2l0-0.6l-0.1-0.4
			l-0.2-0.3l-0.2-0.2l-0.6-0.2l-0.3-0.1h-0.7l-0.3,0l-0.3,0.1l-0.3,0.1l-0.3,0l-0.5,0.1l-0.4-0.1l-0.2-0.2l0-0.6l0.6-0.3l0.3-0.1
			l0.3-0.1l0.3,0l0.3-0.1l0.4,0l0.3,0l0.7,0l0.3,0.1l0.4,0L247,55l0.3,0.1l0.3,0.2l0.3,0.2l0.2,0.2l0.2,0.3l0.1,0.3l0.1,0.3l0,0.3
			l0.1,0.7l0,0.3l0,0.3v0.4l0.1,0.4l0,0.3l0,0.4l0,0.3v0.4l0,0.4V61l0,0.7l0.2,0.2l0.5,0.2L249.5,62.4z M246.7,59.3h-0.3l-0.6,0
			l-0.3,0l-0.3,0l-0.4,0.1l-0.3,0.1l-0.2,0.2l-0.2,0.3l-0.1,0.3v0.7l0.1,0.3l0.1,0.3l0.3,0.2l0.2,0.1l0.7,0l0.3,0l0.3-0.1l0.3-0.1
			l0.2-0.2l0.2-0.3l0.1-0.3l0.1-0.3v-1.1L246.7,59.3z"/>
		<path d="M253.2,55.7l0.3,0l0.2-0.2l0.3-0.3l0.2-0.1l0.3-0.2l0.4-0.1l0.3,0l0.8,0l0.3,0.1l0.3,0l0.3,0.1l0.5,0.4l0.5,0.4l0.2,0.3
			l0.1,0.3l0.2,0.3l0.1,0.3l0,0.3l0.1,0.3l0,0.4l0,0.3l0,0.3l0,0.7l-0.1,0.3l0,0.3l-0.1,0.3l-0.1,0.3l-0.1,0.3l-0.1,0.3l-0.2,0.3
			l-0.3,0.5l-0.2,0.2l-0.3,0.2l-0.3,0.2l-0.3,0.2l-0.3,0.1l-0.3,0l-0.4,0l-0.7,0l-0.3,0l-0.4-0.1l-0.3-0.2l-0.3-0.1l-0.2-0.2
			l-0.2-0.3l-0.2,0.1l0,0.4l0,0.4l0,0.4l0,0.3l0,0.3l0,0.4V65l-0.1,0.6l-0.1,0.2l-0.3,0.2l-0.5,0l-0.2-0.1l-0.2-0.3l-0.1-0.6l0-0.3
			l0-0.3v-0.4l0-0.3v-0.7l0-0.3l0-0.3l0-0.4l0-0.3l0-0.3l0-0.3l0-0.3l0-0.4l0-0.3l0-0.4l0-0.3l0-0.3v-0.3l0-0.4l0-0.3l0-0.3l0-0.3
			l0-0.3v-0.4l0-0.3l0-0.3l0.1-0.7l0.2-0.3l0.7,0l0.3,0.2L253.2,55.7z M255.5,62.2l0.3-0.1l0.3-0.1l0.2-0.2l0.2-0.2l0.2-0.2l0.1-0.3
			l0.1-0.3l0.1-0.3v-0.3l0-0.3l0-0.3l0-0.7l0-0.3l0-0.4l-0.1-0.4l-0.1-0.3l-0.1-0.4l-0.2-0.3l-0.2-0.2l-0.3-0.3l-0.3-0.1l-0.3,0
			l-0.6,0l-0.3,0.1l-0.3,0.1l-0.2,0.1l-0.3,0.2l-0.1,0.3l-0.1,0.3l-0.1,0.3l-0.1,0.3l0,0.3l0,0.4l-0.1,0.3l0,0.7l0,0.4l0.1,0.3
			l0.1,0.4l0.1,0.3l0.1,0.3l0.2,0.3l0.2,0.3l0.2,0.2l0.3,0.2l0.3,0.1L255.5,62.2z"/>
		<path d="M265,54.8l0.3,0.1l0.4,0l0.3,0.2l0.2,0.2l0.3,0.1l0.5,0.5l0.1,0.2l0.2,0.3l0.1,0.3l0.1,0.3l0.1,0.3l0.1,0.3l0,0.4l0.1,0.3
			l0,0.3l0,0.7l0,0.4l-0.1,0.3l0,0.3l-0.1,0.4l0,0.3l-0.2,0.3l-0.1,0.3l-0.1,0.3l-0.3,0.2l-0.2,0.2l-0.3,0.2l-0.3,0.1l-0.2,0.2
			l-0.3,0.1l-0.3,0.1l-0.3,0.1l-0.3,0l-0.6,0h-0.3l-0.4,0l-0.3-0.1l-0.3-0.1l-0.2-0.1l-0.3-0.2l-0.2-0.2l-0.4-0.4l-0.2-0.3l-0.1-0.3
			L261,61l-0.1-0.3l0-0.3l-0.1-0.3l0-0.3v-0.4l0-0.6l0-0.4l0.1-0.6l0-0.3L261,57l0.1-0.3l0.1-0.3l0.1-0.3l0.2-0.3l0.3-0.2l0.2-0.2
			l0.3-0.2l0.3-0.2l0.3-0.1l0.3-0.1l0.3,0l0.4,0h0.6L265,54.8z M265.2,61.9l0.2-0.1l0.3-0.2l0.1-0.3L266,61l0.1-0.3l0.1-0.3l0-0.4
			l0.1-0.3v-0.3l0-0.6l0-0.4l0-0.3l0-0.3l-0.1-0.3l-0.1-0.4l-0.2-0.3l-0.2-0.2l-0.2-0.3l-0.3-0.2l-0.3-0.2h-0.3l-0.6,0l-0.6,0.2
			l-0.3,0.2l-0.2,0.3l-0.2,0.2l-0.2,0.2l-0.1,0.3l-0.1,0.3l-0.1,0.3l0,0.4v0.3l0,0.6l0,0.4l0,0.3l0.1,0.3l0.1,0.3l0.1,0.3l0.1,0.4
			l0.1,0.2l0.3,0.3l0.2,0.2l0.3,0.1l0.4,0h0.9L265.2,61.9z"/>
		<path d="M277.1,60.4l-0.1,0.3l0,0.3l-0.1,0.3l-0.1,0.3l-0.2,0.3l-0.2,0.3l-0.2,0.2l-0.5,0.4l-0.3,0.2l-0.3,0l-0.3,0.1l-0.3,0
			l-0.7,0.1l-0.7,0l-0.3,0l-0.3-0.1l-0.4-0.1l-0.3-0.1l-0.3-0.2l-0.3-0.2l-0.2-0.2l-0.2-0.3l-0.1-0.2l-0.1-0.3l-0.1-0.3l-0.1-0.3
			l-0.1-0.3l0-0.3V59l0-0.3l0-0.3V58l0-0.3l0-0.2l0-0.3l0-0.3l0-0.3l0-0.3l0-0.3v-0.3l0-0.6l0-0.3l0-0.4l0.1-0.3l0-0.3l0.2-0.3
			l0.1-0.3l0.2-0.2l0.2-0.3l0.2-0.2l0.3-0.2l0.2-0.2l0.3-0.1l0.3-0.1l0.3-0.1l0.4,0h0.6l0.3,0l0.4,0.1l0.3,0.1l0.3,0.1l0.3,0.1
			l0.3,0.2l0.2,0.2l0.1,0.2l0.3,0.3l0.1,0.3l0.2,0.3l0.1,0.3l0,0.4l0,0.6l-0.1,0.3l0,0.3l-0.1,0.3l-0.1,0.3l-0.2,0.2l-0.5,0.4
			l-0.3,0.1l-0.8,0.2l0.1,0l0.3,0l0.3,0.1l0.3,0.1l0.3,0.1l0.2,0.2l0.2,0.2l0.5,0.5l0.1,0.3l0.1,0.3L277,59l0,0.3l0,0.3L277.1,60.4z
			 M271.7,55.5l-0.1,0.3l0,0.3l0,0.3l0.3,0.3l0.4-0.1l0.3,0l1-0.2l0.4-0.1l0.2-0.2l0.3-0.2l0.1-0.2l0.2-0.3L275,55l0-0.4L275,54
			l-0.1-0.4l-0.1-0.3l-0.2-0.3l-0.3-0.2l-0.3-0.2l-0.3,0l-0.7,0l-0.3,0l-0.3,0.1l-0.3,0.2l-0.3,0.5l-0.1,0.3l-0.1,0.3l0,0.3l0,0.7
			L271.7,55.5z M275.4,59.6l-0.1-0.4l-0.1-0.3l-0.1-0.3l-0.2-0.2l-0.2-0.3l-0.3-0.2l-0.3-0.1l-0.3,0l-0.7,0l-0.3,0l-0.4,0l-0.4,0.1
			l-0.3,0.5l0,0.3l0,0.4v0.3l0,0.3l0,0.6l0.1,0.4l0.1,0.3l0.1,0.3l0.2,0.3l0.2,0.2l0.3,0.2l0.2,0.1l0.4,0.1l0.7,0l0.3-0.1l0.3-0.1
			l0.2-0.2l0.2-0.3l0.2-0.3l0.1-0.3l0.1-0.3l0-0.3L275.4,59.6z"/>
		<path d="M285.9,62.4l-0.1,0.6l-0.2,0.3h-0.7l-0.3-0.1l-0.3-0.1l-0.5-0.5l-0.1-0.3l-0.2,0.2l-0.2,0.2l-0.6,0.4l-0.3,0l-0.3,0.1
			l-0.4,0.1l-0.7,0l-0.3-0.1l-0.3-0.1l-0.3-0.1l-0.3-0.2l-0.3-0.2l-0.4-0.5l-0.1-0.3l-0.1-0.3l-0.1-0.4l0-0.7l0.1-0.3l0.1-0.3
			l0.1-0.3l0.1-0.3l0.2-0.2l0.3-0.2l0.6-0.3l0.3,0l0.4-0.1l0.4,0l0.3,0h0.3l0.7,0l0.3,0l0.2,0l0.3-0.3l0-0.2l0-0.6l-0.1-0.4
			l-0.2-0.3l-0.2-0.2l-0.6-0.2l-0.3-0.1h-0.7l-0.3,0l-0.3,0.1l-0.3,0.1l-0.3,0l-0.5,0.1l-0.4-0.1l-0.2-0.2l0-0.6l0.6-0.3l0.3-0.1
			l0.3-0.1l0.3,0l0.3-0.1l0.4,0l0.3,0l0.7,0l0.3,0.1l0.4,0l0.3,0.1l0.3,0.1l0.3,0.2l0.3,0.2l0.2,0.2l0.2,0.3l0.1,0.3l0.1,0.3l0,0.3
			l0.1,0.7l0,0.3l0,0.3v0.4L285,59l0,0.3l0,0.4l0,0.3v0.4l0,0.4V61l0,0.7l0.2,0.2l0.5,0.2L285.9,62.4z M283.1,59.3h-0.3l-0.6,0
			l-0.3,0l-0.3,0l-0.4,0.1l-0.3,0.1l-0.2,0.2l-0.2,0.3l-0.1,0.3v0.7l0.1,0.3l0.1,0.3l0.3,0.2l0.2,0.1l0.7,0l0.3,0l0.3-0.1l0.3-0.1
			l0.2-0.2l0.2-0.3l0.1-0.3l0.1-0.3v-1.1L283.1,59.3z"/>
	</g>
	<g>
		<g>
			<g>
				<path class="st0" d="M163.3,6.5c-0.1-0.7,0.1-1.3,0.3-1.9c0.3-0.5,0.8-1.2,1.6-2.1c0.7-0.6,1.3-1.1,1.9-1.4
					c0.5-0.3,1.1-0.6,1.8-0.7c0.6-0.2,1.4-0.3,2.2-0.3c0.8,0,1.8-0.1,2.9-0.1c1.5,0,3,0.2,4.4,0.5c1.4,0.3,2.5,0.8,3.5,1.4
					c1,0.6,1.7,1.2,2.1,2c0.4,0.7,0.5,1.5,0.2,2.3c-0.3,0.9-1,1.5-2.1,1.5c-1,0.1-1.9-0.3-2.5-1.2c-0.6-0.8-0.7-1.7-0.4-2.5
					c0.2-0.6,0-1.1-0.8-1.5c-0.8-0.3-2.4-0.5-4.8-0.5c-0.8,0-1.4,0-1.6,0.1c-0.2,0.1-0.4,0.3-0.6,0.7c-0.2,0.5-0.3,1.2-0.4,2
					c-0.1,0.8-0.1,1.6-0.1,2.4c0,0.8,0.1,1.6,0.2,2.4c0.1,0.8,0.3,1.4,0.6,2c0.3,0.8,1,1.3,2,1.3c1.3,0,2.4-0.3,3.3-1
					c0.8-0.5,1.4-0.6,1.8-0.3c0.4,0.4,0.6,1.2,0.6,2.3c0,1.1-0.2,1.9-0.5,2.3c-0.3,0.4-0.7,0.3-1-0.1c-0.3-0.5-0.9-0.8-1.8-0.9
					c-0.8-0.1-1.7,0-2.7,0.1c-0.9,0.2-1.8,0.5-2.7,0.9c-0.9,0.4-1.5,0.8-1.9,1.3c-0.7,0.9-1.2,2-1.6,3.4c-0.4,1.4-0.6,2.8-0.6,4.3
					c0,1.5,0.1,3,0.3,4.4c0.3,1.4,0.7,2.7,1.2,3.7c1.4,2.8,3.2,4.4,5.2,4.9c2,0.5,4.2-0.3,6.7-2.3c0.6-0.5,1.2-1.2,1.7-2
					c0.5-0.8,0.8-1.6,1.1-2.5c0.2-0.9,0.4-1.7,0.4-2.6c0-0.8-0.1-1.6-0.5-2.2c-0.2-0.3-0.5-0.7-1-1.2c-0.5-0.4-1-0.8-1.6-1.2
					c-0.6-0.3-1.2-0.6-1.7-0.9c-0.6-0.2-1.1-0.4-1.5-0.4c-0.4,0-0.8,0.1-1,0.4c-0.2,0.3-0.2,0.5,0.1,0.7c0.2,0.1,0.3,0.3,0.4,0.7
					c0.1,0.3,0.1,0.7,0.1,1.1c0,0.4,0,0.8-0.1,1.2s-0.2,0.7-0.4,0.9c-0.4,0.4-1.2,0.6-2.2,0.6c-0.9,0-1.6-0.2-2.2-0.7
					c-0.6-0.4-0.9-1-1.1-1.6c-0.2-0.6-0.1-1.3,0.1-2.1s0.7-1.4,1.5-2.1c1-0.8,2.2-1.3,3.7-1.4c1.5-0.1,3.4,0.1,5.9,0.7
					c1.1,0.2,2,0.4,2.6,0.4c0.6,0,1.4-0.1,2.3-0.3c1.7-0.3,3.1-0.9,4.2-1.6c1.1-0.7,1.7-1.4,1.7-2c0-0.2-0.1-0.5-0.2-0.8
					c-0.1-0.3-0.3-0.6-0.5-0.9c-0.2-0.3-0.4-0.5-0.7-0.7c-0.2-0.2-0.4-0.3-0.6-0.3c-0.3,0-0.5,0.3-0.5,0.9c0,0.7-0.4,1.4-1.3,2.2
					c-0.3,0.3-0.5,0.5-0.7,0.5c-0.2,0-0.4,0-0.7-0.2c-1.1-0.5-1.9-1.2-2.5-2.2c-0.5-1-0.5-1.7,0-2.2c0.2-0.2,0.6-0.5,1.1-0.6
					c0.5-0.2,1-0.3,1.6-0.4c0.6-0.1,1.2-0.1,1.8-0.1c0.6,0,1.2,0.1,1.7,0.3c1,0.3,1.8,0.8,2.4,1.6c0.6,0.7,0.9,1.6,0.9,2.6
					c0,2.1-1.4,3.9-4.3,5.4c-0.8,0.4-1.3,0.8-1.6,1.2c-0.3,0.3-0.4,0.8-0.4,1.3c0,0.4-0.1,1.1-0.3,2c-0.2,0.9-0.4,1.7-0.6,2.5
					c-0.3,1.1-0.7,2-1.2,2.7c-0.5,0.7-1.3,1.6-2.4,2.7c-0.9,1-1.8,1.8-2.6,2.4c-0.8,0.6-1.6,1.1-2.5,1.5c-0.8,0.3-1.8,0.6-2.8,0.7
					c-1,0.1-2.2,0.2-3.5,0.2c-4.1,0-7.3-1.2-9.6-3.5c-2.3-2.3-3.5-5.4-3.5-9.4c0-5.5,2.3-9.4,6.8-11.8c0.5-0.3,1.1-0.6,1.6-1
					c0.5-0.3,0.8-0.6,0.8-0.7c0,0-0.1-0.2-0.4-0.3c-0.2-0.2-0.5-0.3-0.7-0.5c-1-0.4-1.9-1.3-2.6-2.5C163.6,9.2,163.3,7.9,163.3,6.5z
					"/>
			</g>
		</g>
		<g>
			<g>
				<path class="st2" d="M32.7,36.6c0.3,0.1,0.6,0.2,0.8,0.3c0.2,0.1,0.4,0.3,0.4,0.5c0,0.1-0.1,0.3-0.3,0.5
					c-0.2,0.3-0.6,0.4-1.2,0.4c-0.8,0-1.5,0-2.2-0.1c-0.6,0-1.3-0.1-1.9-0.1c-0.6,0-1.2-0.1-1.9-0.1C25.8,38,25,38,24.2,38
					c-0.2,0-0.5,0-0.7,0c-0.3,0-0.5,0-0.8,0c-0.6,0-1.1-0.1-1.6-0.3c-0.5-0.2-0.7-0.5-0.7-0.8c0-0.1,0.1-0.3,0.2-0.5
					c0.2-0.2,0.4-0.3,0.6-0.3c0.2,0,0.4,0,0.5,0c0.2,0,0.3,0,0.5,0c0.3,0,0.5-0.5,0.7-1.6c0.2-1.1,0.3-2.3,0.3-3.8
					c0.1-1.5,0.1-3,0.1-4.5c0-1.5,0-2.8,0.1-3.8c0-1.4,0.1-2.8,0.1-4.2c0-1.4,0.1-2.8,0.1-4.2c0-0.4,0-0.9,0-1.3c0-0.4,0-0.9,0-1.4
					c0-1.1-0.2-1.8-0.5-1.9c-0.3-0.2-0.5,0.1-0.7,0.9c-0.2,0.7-0.3,1.4-0.5,2.3c-0.2,0.9-0.3,1.6-0.5,2.1c-1.1,3.4-2.3,6.9-3.6,10.2
					c-1.3,3.4-2.6,6.8-3.9,10.2c-0.2,0.6-0.4,1.1-0.5,1.5c-0.1,0.4-0.3,0.7-0.6,1c-0.2,0.2-0.6,0.4-1,0.5c-0.4,0.1-1.1,0.2-1.9,0.2
					c-1,0-1.9,0-2.7-0.1c-0.7,0-1.6-0.1-2.7-0.1c-0.2,0-0.5,0-0.9,0.1c-0.4,0-0.7,0.1-1.1,0.1c-0.5,0-0.8-0.1-1-0.3
					c-0.2-0.2-0.3-0.4-0.3-0.6c0-0.5,0.1-0.8,0.4-0.8c0.3-0.1,0.6-0.1,1-0.1c0.4,0,0.7-0.1,1-0.2C3.9,36.1,4,35.8,4,35.2
					c0-0.5,0-1.1-0.1-1.7c-0.1-0.6-0.1-1.1-0.1-1.4c-0.1-3.4-0.2-6.7-0.3-10.1c-0.1-3.4-0.1-6.8-0.2-10.2c0-0.8,0-1.4,0-1.8
					c0-0.5,0-0.9,0-1.3v-1V7c0-0.4-0.1-0.7-0.2-0.9C3,6,3,5.9,3,5.9L2.7,6V5.8L2.3,5.9H1.4C1.2,5.9,1,5.8,0.8,5.7
					C0.6,5.6,0.5,5.4,0.5,5c0-0.4,0.2-0.7,0.7-0.8C1.7,4.1,2.2,4,2.6,4c0.4,0,0.7,0,1,0c0.3,0,0.6,0,0.8,0C5.7,4,6.7,4,7.7,4
					c1,0,2.1,0,3.2,0c0.9,0,1.8,0.1,2.6,0.2c0.8,0.1,1.2,0.4,1.2,1c0,0.4-0.2,0.6-0.6,0.7c-0.4,0.1-0.8,0.1-1,0.1
					c-0.2,0-0.4,0-0.6,0c-0.2,0-0.3,0-0.4,0c-0.4,0-0.7,0.8-0.7,2.3c0,0.4,0,0.7,0,1.1c0,0.4,0,0.8,0,1.1c0,1.3,0,2.7,0,4.2
					c0,1.5,0,2.9,0,4.2c0,2.1,0,4.3,0.1,6.5c0,2.2,0.2,4.4,0.4,6.6c0,0.7,0.2,1.2,0.5,1.3c0.3,0.2,0.5,0,0.7-0.5
					c0.2-0.5,0.3-1.1,0.5-1.7c0.2-0.6,0.3-1,0.4-1.2c1.3-3.3,2.5-6.6,3.6-10.1c1.1-3.4,2.3-6.8,3.4-10.2c0-0.1,0.1-0.3,0.1-0.4
					c0-0.1,0.1-0.3,0.1-0.4c0.2-0.7,0.3-1.3,0.4-1.9c0.1-0.6,0.2-1.1,0.4-1.5c0.2-0.4,0.5-0.8,0.8-1c0.4-0.2,1-0.4,1.7-0.4h3.8h4.1
					C33,4,33.5,4,34,4.2c0.4,0.2,0.7,0.5,0.7,1c0,0.4-0.2,0.5-0.5,0.5c-0.3,0-0.7,0-1,0c-0.4,0-0.7,0.1-1,0.2
					c-0.3,0.2-0.5,0.5-0.5,1.2c0,0.5,0,1,0.1,1.5c0.1,0.5,0.1,0.9,0.1,1.1c0,4.1-0.1,8.2-0.3,12.5c-0.2,4.3-0.3,8.4-0.3,12.5
					C31.2,35.7,31.7,36.3,32.7,36.6z"/>
				<path class="st2" d="M40.8,4.5c0.1-0.2,0.9-0.3,2.3-0.4C44.5,4,46.1,4,48,4c1.9,0,3.8,0.1,5.7,0.2c1.9,0.1,3.4,0.3,4.6,0.5
					c3.4,0.6,6,1.4,7.8,2.3c1.7,0.9,3,2.2,3.8,3.7c0.4,0.8,0.6,1.6,0.5,2.5c0,0.9-0.3,1.8-0.7,2.7c-0.4,0.9-1,1.7-1.8,2.5
					c-0.7,0.8-1.6,1.4-2.7,2c-0.7,0.4-1.3,0.6-2,0.9c-0.6,0.2-1.1,0.3-1.3,0.3c-0.6,0-0.9,0.1-0.8,0.4c0.1,0.3,0.4,0.5,1.1,0.7
					c0.4,0.1,0.9,0.3,1.5,0.7c0.6,0.4,1.2,0.9,1.8,1.4c0.6,0.6,1.1,1.1,1.6,1.7c0.5,0.6,0.8,1.2,1.1,1.7c0.2,0.5,0.4,1.1,0.6,1.8
					c0.2,0.6,0.3,1.2,0.3,1.6c0,1-0.5,2.1-1.4,3.1c-0.9,1.1-2,1.8-3.3,2.1c-0.7,0.2-1.7,0.4-3,0.5c-1.3,0.2-2.8,0.3-4.5,0.4
					c-1.6,0.1-3.3,0.2-5.1,0.3c-1.7,0.1-3.3,0.1-4.8,0.1c-1.5,0-2.7,0-3.6-0.1c-1-0.1-1.5-0.2-1.6-0.3c-0.1-0.1,0-0.3,0.3-0.6
					c0.3-0.2,0.6-0.5,1.1-0.6c0.4-0.2,0.8-0.4,1-0.5c0.2-0.1,0.4-0.3,0.5-0.6c0.1-0.2,0.1-0.6,0-1c-0.1-0.4-0.2-1.1-0.4-1.8
					c0-0.3-0.1-0.9-0.2-1.8c-0.1-0.9-0.2-2-0.2-3.3c-0.1-1.3-0.1-2.8-0.2-4.4c-0.1-1.6-0.1-3.3-0.2-5c-0.1-3-0.2-5.3-0.2-6.9
					c-0.1-1.7-0.1-2.9-0.2-3.7C43,7,42.9,6.5,42.8,6.3c-0.1-0.2-0.3-0.3-0.5-0.4c-0.6-0.1-1.1-0.3-1.3-0.5S40.6,4.8,40.8,4.5
					L40.8,4.5z M66.2,28.9c-0.6-1.3-1.6-2.4-2.9-3.4c-1.3-1-2.8-1.6-4.5-2c-1.5-0.3-2.8-0.5-4-0.7c-1.2-0.1-2-0.2-2.5-0.1
					c-0.3,0-0.4,0.2-0.5,0.4c-0.1,0.4-0.1,0.9-0.2,1.6c0,0.7,0,1.5,0,2.3c0,0.9,0.1,1.7,0.1,2.7c0.1,0.9,0.2,1.8,0.3,2.5
					c0.2,1.1,0.4,1.9,0.6,2.5c0.2,0.6,0.5,1,1,1.3c0.4,0.3,1.1,0.4,1.8,0.4c0.8,0,1.8-0.1,3.1-0.2c3.8-0.4,6.3-1.2,7.4-2.3
					C67.2,32.8,67.3,31.1,66.2,28.9z M60.2,20.1c2.6-0.5,4.5-1.4,5.8-2.5c1.3-1.1,2.1-2.3,2.2-3.6c0.1-1.3-0.3-2.5-1.4-3.8
					c-1.1-1.3-2.8-2.2-5.2-3c-1.4-0.4-2.8-0.8-4.3-1c-1.5-0.2-2.6-0.3-3.4-0.3c-0.4,0-0.6,0.2-0.8,0.7c-0.2,0.4-0.3,1-0.4,1.5
					L52,18.3c0,0.5,0,1,0.1,1.5c0.1,0.4,0.3,0.7,0.6,0.8c0.7,0.2,1.7,0.2,3.1,0.1C57.1,20.6,58.6,20.4,60.2,20.1z"/>
				<path class="st2" d="M84.7,5.8c-0.5,0-0.8-0.1-1-0.2c-0.2-0.2-0.3-0.3-0.3-0.5c0-0.1,0.1-0.2,0.3-0.3c0.2-0.1,0.4-0.1,0.6-0.2
					c0.8,0,2-0.1,3.8-0.1c1.8,0,3.6,0,5.5,0.1c1.9,0.1,3.5,0.1,5,0.2c1.5,0.1,2.2,0.2,2.4,0.3c0.3,0.3,0.3,0.6,0,0.9
					c-0.3,0.3-0.7,0.5-1.2,0.5c-0.7,0-1.1,0.2-1.2,0.7c-0.1,0.2-0.1,0.9,0.1,2c0.2,1.1,0.4,2.5,0.7,4.2c0.3,1.7,0.7,3.5,1.2,5.5
					c0.4,2,0.9,4,1.4,5.9c0.5,1.9,1,3.7,1.5,5.4c0.5,1.7,0.9,3,1.3,4.1c0.2,0.5,0.3,1,0.5,1.3c0.2,0.3,0.3,0.5,0.5,0.7
					c0.2,0.2,0.4,0.3,0.7,0.3c0.3,0.1,0.7,0.1,1.2,0.2c1.4,0.1,2.1,0.4,2.1,0.9c0,0.1-0.1,0.2-0.3,0.3c-0.2,0.1-0.6,0.2-1.2,0.2
					c-0.6,0.1-1.4,0.1-2.5,0.1c-1.1,0-2.4,0.1-4.1,0.1c-4.3,0-7,0-8.1-0.3c-1.1-0.2-0.8-0.6,0.8-1.3c0.8-0.4,1.3-0.6,1.4-0.8
					c0.1-0.2,0.1-0.7,0-1.4c-0.1-0.4-0.3-1-0.5-1.8c-0.2-0.7-0.4-1.4-0.6-2l-0.4-1.1c-0.3-0.7-0.8-1.1-1.5-1.1l-1.1-0.1
					c-0.7,0-1.5-0.2-2.6-0.4c-1.1-0.2-2-0.5-2.9-0.9c-0.9-0.4-1.7-0.6-2.4-0.8c-0.7-0.2-1.1-0.3-1.2-0.2c-0.1,0-0.3,0.4-0.6,1.2
					c-0.3,0.8-0.6,1.7-0.9,2.7c-0.3,1-0.7,2.1-1,3.1c-0.3,1.1-0.6,1.9-0.7,2.5c-0.1,0.5-0.2,0.9-0.1,0.9c0.3,0.2,0.8,0.4,1.4,0.5
					c1.1,0.1,1.6,0.4,1.6,0.9c0,0.2-0.3,0.3-0.8,0.5c-0.5,0.2-1.1,0.3-1.9,0.3c-0.7,0.1-1.5,0.1-2.4,0c-0.9,0-1.7-0.2-2.4-0.3
					C73.7,38.3,73,38,73,37.5c0-0.4,0.6-0.7,1.8-0.7c0.4,0,0.9,0,1.3-0.1c0.4-0.1,0.7-0.2,0.8-0.3c0.1-0.1,0.3-0.7,0.7-1.6
					c0.4-1,0.7-2,1.1-3.2c0.4-1.2,0.8-2.3,1.1-3.3c0.3-1,0.5-1.7,0.5-1.9c0-0.2-0.1-0.4-0.4-0.4c-0.2-0.1-0.5-0.1-0.9,0
					c-0.4,0-0.7,0.1-1.1,0.3c-0.4,0.2-0.7,0.4-1,0.6c-0.6,0.5-1.1,0.7-1.5,0.7c-0.4,0-0.6-0.3-0.6-0.9c0-0.5,0.4-1,1.3-1.5
					c0.9-0.5,1.9-0.8,3-1.1L80,24c0.6-0.1,1-0.4,1.1-1.1l1.3-4.8c0.4-1.6,0.8-3.2,1.3-4.9c0.5-1.7,0.9-2.9,1.2-3.7
					c0.5-1.5,0.7-2.5,0.7-3C85.5,6.1,85.2,5.8,84.7,5.8z M92.8,26.2c0.1-0.2,0.2-0.6,0.2-1.1c0-0.5-0.2-1.3-0.4-2.4
					c-0.2-1.1-0.6-2.4-1.1-4c-0.5-1.6-1.1-3.6-1.8-5.9c-0.4-1.4-0.9-2.6-1.3-3.5c-0.4-1-0.6-1.4-0.7-1.4c-0.1,0-0.3,0.3-0.6,1
					c-0.3,0.7-0.6,1.6-0.9,2.6c-0.3,1.1-0.7,2.2-1.1,3.5c-0.4,1.3-0.7,2.5-1,3.7c-0.3,1.2-0.6,2.2-0.7,3.2c-0.2,0.9-0.3,1.6-0.3,1.9
					c0,0.3,0.3,0.6,0.8,0.8c0.5,0.2,1.4,0.5,2.7,0.9c1.3,0.4,2.3,0.6,3.1,0.8c0.8,0.2,1.4,0.3,1.8,0.4c0.4,0.1,0.7,0.1,0.9,0
					C92.4,26.6,92.6,26.4,92.8,26.2z"/>
				<path class="st2" d="M113.6,4c1.8-0.1,3.3-0.1,4.5-0.2c1.1,0,2,0,2.7,0.1c0.6,0.1,1.1,0.2,1.3,0.3c0.2,0.1,0.4,0.3,0.4,0.5
					c0,0.5-0.4,0.8-1.3,0.9l-0.7,0.1c-0.4,0-0.7,0.3-0.7,0.8l-0.1,6.4c0,2-0.1,3.8,0,5.2c0,1.5,0.1,2.3,0.2,2.4c0.1,0.1,0.4,0.1,1,0
					c0.6-0.1,1.2-0.3,2-0.6c0.4-0.1,0.8-0.3,1.4-0.4c0.6-0.1,1.2-0.2,1.8-0.3c0.6-0.1,1.2-0.2,1.8-0.2c0.6,0,1.1-0.1,1.5-0.1h1.3
					c0.9,0,1.3-0.4,1.3-1.3c0-1.8,0-3.7-0.1-5.7c0-1.9-0.1-3.8-0.1-5.6c0-0.5-0.2-0.8-0.7-0.9l-0.7-0.1c-0.9-0.1-1.3-0.4-1.3-0.9
					c0-0.1,0.1-0.2,0.2-0.3c0.2-0.1,0.5-0.2,1-0.2c0.5,0,1.2-0.1,2-0.1c0.8,0,2,0,3.4,0c1.5,0,2.8,0,3.7,0c0.9,0,1.7,0.1,2.2,0.1
					c0.5,0,0.9,0.1,1.1,0.2c0.2,0.1,0.3,0.2,0.3,0.3c0,0.2-0.1,0.4-0.4,0.5c-0.2,0.1-0.5,0.2-0.8,0.3c-0.3,0.1-0.5,0.2-0.8,0.3
					c-0.2,0.1-0.4,0.2-0.4,0.4c0,0.1-0.1,0.6-0.1,1.5c0,0.9-0.1,2.1-0.1,3.6c0,1.5-0.1,3.2-0.1,5.1c0,1.9-0.1,3.9-0.1,5.9L139.9,36
					c0,0.4,0.2,0.7,0.6,0.9l0.7,0.3c0.7,0.3,1,0.5,0.7,0.7c-0.2,0.2-0.8,0.4-1.6,0.5c-0.8,0.1-1.8,0.2-3.1,0.3
					c-1.2,0.1-2.4,0.1-3.5,0.1c-1.1,0-2.1,0-3-0.1c-0.9-0.1-1.4-0.2-1.6-0.3c-0.4-0.4-0.6-0.6-0.6-0.7c0-0.1,0.4-0.3,1-0.6
					c0.6-0.3,1.1-0.6,1.5-1c0.4-0.4,0.6-1.2,0.7-2.5c0.1-0.8,0.2-2,0.3-3.5c0.1-1.5,0.1-2.8,0.1-4.1c0-1,0.1-1.8,0.1-2.5
					c0-0.6,0-1.1-0.1-1.4c-0.1-0.4-0.2-0.6-0.3-0.8c-0.1-0.2-0.3-0.3-0.4-0.4c-0.8-0.4-1.8-0.5-3.1-0.4c-1.3,0.1-3,0.5-5.1,1.3
					l-1.7,0.7c-1,0.4-1.6,1.2-1.6,2.3l-0.1,1.7c0,0.9-0.1,2.1,0,3.4c0,1.3,0.1,2.4,0.2,3.3c0,0.8,0.1,1.5,0.2,1.9
					c0.1,0.5,0.2,0.9,0.3,1.1c0.1,0.2,0.2,0.4,0.4,0.5c0.2,0.1,0.4,0.2,0.7,0.2c0.3,0.1,0.6,0.2,0.8,0.4c0.2,0.2,0.4,0.3,0.4,0.6
					c0,0.1-0.1,0.2-0.3,0.3c-0.2,0.1-0.5,0.2-1,0.2c-0.5,0.1-1.1,0.1-2,0.1c-0.9,0-1.9,0.1-3.2,0.1c-3,0.1-5,0-5.9-0.2
					c-0.9-0.2-0.8-0.6,0.4-1.2l0.6-0.3c0.4-0.2,0.6-0.5,0.6-0.9l-0.3-14.6c0-2.1-0.1-4-0.1-5.8c0-1.8-0.1-3.4-0.2-4.8
					c-0.1-1.4-0.1-2.5-0.2-3.3c0-0.8-0.1-1.3-0.1-1.3c-0.1-0.1-0.3-0.2-0.5-0.2c-0.2-0.1-0.5-0.1-0.7-0.2c-0.2-0.1-0.5-0.2-0.6-0.3
					c-0.2-0.1-0.3-0.3-0.3-0.5c0-0.3,0.3-0.5,0.9-0.6C110.5,4.2,111.7,4,113.6,4z"/>
				<path class="st2" d="M218.8,3.6c0.7-0.2,1.6-0.3,2.6-0.3c1,0,2,0,3,0.1c1,0.1,2,0.2,3,0.5c1,0.2,1.8,0.5,2.6,0.7
					c1.6,0.6,3.2,1.6,4.6,2.9c1.5,1.3,2.5,2.7,3.2,4.1c0.6,1.6,1,3.3,1.2,5.2c0.1,1.9,0,3.8-0.3,5.7c-0.3,1.9-0.9,3.7-1.7,5.4
					c-0.8,1.7-1.8,3.2-3,4.4c-0.5,0.5-1.2,1-1.9,1.6c-0.8,0.6-1.5,1-2.1,1.4c-0.6,0.3-1,0.5-1.4,0.6c-0.4,0.2-0.9,0.3-1.4,0.4
					c-0.5,0.1-1.1,0.1-1.9,0.2c-0.7,0-1.7,0-2.8,0c-1.1,0-2,0-2.8,0c-0.7,0-1.4-0.1-1.9-0.2c-0.5-0.1-1-0.2-1.4-0.3
					c-0.4-0.1-0.9-0.3-1.4-0.6c-1.5-0.6-2.9-1.7-4.3-3.2c-1.4-1.5-2.5-3.1-3.3-4.8c-0.5-0.9-0.8-2-1-3.3c-0.2-1.3-0.3-2.7-0.3-4.1
					c0-1.4,0.1-2.8,0.3-4.1c0.2-1.3,0.5-2.4,1-3.4c1-2.3,2.6-4.2,4.6-5.7C213.8,5.2,216.1,4.1,218.8,3.6z M227.2,5.9
					c-0.2-0.1-0.6-0.2-1.3-0.4c-0.7-0.1-1.5-0.2-2.3-0.3c-0.9-0.1-1.7-0.1-2.6-0.1c-0.9,0-1.6,0.1-2.1,0.2c-0.4,0-0.7,0.2-1,0.3
					c-0.3,0.2-0.5,0.5-0.7,0.8c-0.2,0.4-0.4,0.9-0.5,1.7c-0.2,0.7-0.4,1.7-0.6,3c-0.4,1.8-0.6,4-0.6,6.5c0,2.5,0.1,4.9,0.3,7.3
					c0.2,2.3,0.6,4.4,1,6.1c0.5,1.8,1,2.9,1.6,3.3c0.2,0.2,0.7,0.4,1.4,0.4c0.7,0.1,1.6,0.1,2.7,0.1c1,0,1.9,0,2.5-0.1
					c0.6-0.1,1.1-0.3,1.5-0.6c0.4-0.3,0.7-0.9,0.9-1.6c0.3-0.7,0.6-1.8,1-3.1c0.4-1.8,0.7-4,0.9-6.5c0.1-2.5,0.2-4.9,0-7.3
					c-0.1-2.4-0.4-4.5-0.7-6.3C228.2,7.6,227.7,6.4,227.2,5.9z"/>
				<path class="st2" d="M245.7,6.1c-0.4-0.1-0.8-0.2-1.1-0.4c-0.3-0.1-0.5-0.4-0.5-0.8c0-0.3,0.1-0.4,0.4-0.5
					c0.3-0.1,0.6-0.1,1-0.1c0.8,0,1.5,0,2.1,0.1c0.6,0.1,1.2,0.1,2,0.1c1.7,0,3.4-0.1,5.1-0.2c1.7-0.1,3.4-0.2,5.2-0.2
					c0.7,0,1.3,0.1,1.8,0.3c0.5,0.2,0.8,0.4,0.8,0.8c0,0.5-0.2,0.7-0.5,0.7c-0.3,0-0.7,0-1,0c-0.3,0-0.6,0.2-0.8,0.5
					c-0.2,0.3-0.2,1.1,0,2.3c0.6,3.5,0.9,7.1,1.2,10.8c0.2,3.7,0.3,7.3,0.3,10.8c0,0.3,0,0.8-0.1,1.4c-0.1,0.6-0.1,1.2-0.1,1.7
					c0,0.7,0.1,1.2,0.4,1.4c0.3,0.2,0.6,0.3,1,0.3c0.4,0,0.7,0,1,0c0.3,0,0.5,0.2,0.5,0.6c0,0.4-0.2,0.7-0.5,0.8
					c-0.4,0.2-0.8,0.3-1.3,0.3c-0.4,0-0.9,0-1.3-0.1c-0.4,0-0.8-0.1-1.1-0.1c-0.2,0-0.5,0-0.7,0.1c-0.5,0-1.1,0.1-2,0.2
					c-0.9,0.1-1.7,0.1-2.6,0.1c-1.1,0-1.9-0.1-2.5-0.3c-0.6-0.2-0.9-0.5-0.9-1c0-0.4,0.2-0.6,0.7-0.6c0.2,0,0.4,0,0.5,0
					c0.2,0,0.4,0,0.6,0c0.5,0,0.7-0.4,0.7-1.3c0-4.1-0.2-8.2-0.5-12.3c-0.4-4.1-0.7-8.2-0.9-12.3v-1c0-0.6-0.1-1.1-0.3-1.6
					c-0.2-0.5-0.7-0.7-1.5-0.7c-0.7,0-1.1,0.2-1.1,0.7c-0.1,0.5-0.1,1.1-0.2,1.8c-0.3,1.7-0.5,3.6-0.7,5.6c-0.2,2-0.4,3.8-0.5,5.6
					c-0.1,1.1-0.2,2.2-0.4,3.3c-0.1,1.1-0.3,2.3-0.5,3.4c-0.2,1.1-0.5,2.2-0.9,3.2c-0.4,1-0.9,1.9-1.5,2.8c-0.1,0.1-0.2,0.3-0.3,0.4
					c-0.1,0.2-0.3,0.3-0.4,0.5c-0.3,0.3-0.5,0.6-0.8,0.9c-0.3,0.3-0.5,0.5-0.5,0.6c0,0.1,0.1,0.2,0.4,0.2c0.2,0,0.5,0.1,0.8,0
					c0.3,0,0.6,0,0.9-0.1c0.3,0,0.5,0,0.6,0c0.3,0,0.6,0.1,0.8,0.2c0.2,0.1,0.4,0.4,0.4,0.8c0,0.3-0.2,0.6-0.5,0.7
					c-0.3,0.1-0.6,0.2-1,0.2c-0.4,0-0.7,0-1.1-0.1c-0.3,0-0.5-0.1-0.7-0.1c-0.6,0-1.2,0.1-1.8,0.2c-0.6,0.1-1.3,0.1-1.9,0.1
					c-0.8,0-1.4-0.1-1.9-0.3c-0.5-0.2-0.7-0.4-0.7-0.7c0-0.2,0.1-0.4,0.4-0.6c0.3-0.2,0.6-0.3,1.1-0.3c0.7,0,1.4-0.2,2-0.6
					c0.6-0.4,1.2-0.9,1.8-1.5c0.6-0.6,1.1-1.3,1.5-2c0.4-0.7,0.8-1.5,1-2.2c0.6-1.7,0.9-3.4,1.1-5.1c0.1-1.8,0.3-3.5,0.5-5.3
					c0.1-1.5,0.3-3.2,0.5-4.9c0.2-1.7,0.5-3.4,0.7-5c0.1-0.6-0.1-1.1-0.4-1.5C246.8,6.4,246.3,6.2,245.7,6.1z"/>
				<path class="st2" d="M270,5.4c-0.3,0-0.6-0.1-0.8-0.3c-0.2-0.1-0.3-0.3-0.3-0.5c0-0.2,0.1-0.4,0.5-0.7c0.3-0.2,0.8-0.4,1.6-0.4
					c1.2,0,2.3,0,3.2,0.1c0.9,0,1.8,0.1,2.6,0.1c0.8,0,1.7,0.1,2.5,0.1c0.9,0,1.9,0.1,3,0.1c1.1,0,1.7,0.3,1.7,1
					c0,0.2-0.1,0.4-0.3,0.5c-0.2,0.2-0.4,0.3-0.8,0.3c-0.3,0-0.5,0-0.7-0.1c-0.2-0.1-0.4-0.1-0.6-0.1c-0.3,0-0.5,0.3-0.7,0.9
					c-0.2,0.6-0.3,1.3-0.5,2.2c-0.1,0.9-0.2,1.9-0.3,2.9c-0.1,1.1-0.1,2-0.2,2.9c0,0.9,0,1.7,0,2.3c0,0.6,0,1,0,1.1
					c0,0.5,0,0.8,0.1,1c0,0.2,0.1,0.4,0.2,0.5c0.1,0.1,0.3,0.1,0.5,0.1c0.2,0,0.5,0,0.8,0c1.5,0.2,2.8,0.6,3.8,1.2
					c1.1,0.6,1.9,1.4,2.5,2.3c0.6,0.9,1.1,1.9,1.4,3.1c0.3,1.1,0.5,2.3,0.5,3.6c0,1.6-0.5,2.9-1.5,3.8c-1,0.9-2.2,1.6-3.5,2
					c-1.4,0.5-2.7,0.7-4.1,0.8c-1.4,0.1-2.4,0.2-3.1,0.2c-1.3,0-2.4,0.1-3.4,0.2c-1,0.1-2.3,0.2-4,0.2c-0.6,0-1.1-0.1-1.5-0.2
					c-0.5-0.1-0.7-0.4-0.7-0.8c0-0.4,0.2-0.6,0.5-0.7c0.3-0.1,0.7-0.1,1-0.1h1c0.4,0,0.6-0.4,0.7-1.2c0.1-0.8,0.2-1.6,0.2-2.3
					c0-0.8,0-1.5-0.1-2.3c0-0.7-0.1-1.5-0.1-2.2c0-2.9,0.1-5.9,0.2-9c0.1-3.2,0.2-6.2,0.2-9.1c0-0.3,0-0.7,0-1c0-0.3,0-0.6,0-1
					c0-0.4-0.1-0.8-0.4-1.1C270.7,5.8,270.4,5.5,270,5.4z M279.9,22.8c0,0.3,0,0.5,0,0.7c0,0.2,0,0.5,0,0.7c0,2.7,0.1,5.3,0.2,8
					c0,0.1,0,0.3,0,0.6c0,0.3,0,0.5,0,0.8c0,0.3,0,0.6,0.1,0.8c0,0.2,0.2,0.3,0.4,0.3c0.7,0,1.5-0.1,2.4-0.3
					c0.9-0.2,1.7-0.5,2.5-0.9c0.8-0.4,1.4-1,1.9-1.6c0.5-0.7,0.8-1.6,0.8-2.6c0-1.3-0.2-2.5-0.5-3.4c-0.3-0.9-0.8-1.7-1.4-2.3
					c-0.6-0.6-1.3-1.1-2.2-1.4c-0.8-0.3-1.7-0.5-2.5-0.7c-0.4,0-0.8,0.1-1.1,0.3C280.1,22,279.9,22.4,279.9,22.8z"/>
				<path class="st2" d="M298.7,33.3c-0.2-4.3-0.3-8.6-0.3-12.9c0-4.3,0-8.6,0-12.9c0-0.6-0.2-1-0.5-1.1c-0.3-0.1-0.7-0.2-1-0.3
					c-0.3,0-0.7,0-1-0.1c-0.3,0-0.5-0.2-0.5-0.5c0-0.3,0.5-0.6,1.4-0.8c1-0.2,2.2-0.4,3.6-0.5c1.4-0.1,2.9-0.1,4.5-0.2
					c1.6,0,2.9,0,4.1,0c1,0,2,0,3,0.1c1,0,2,0.2,2.8,0.3c0.9,0.2,1.6,0.4,2.1,0.7c0.6,0.3,0.8,0.7,0.8,1.1c0,0.3,0,0.6-0.1,0.9
					c0,0.3-0.1,0.6-0.1,0.8c0,0.2,0,0.4,0,0.6c0,0.2,0,0.5,0,0.7c0,1.2-0.3,1.9-1,1.9c-0.3,0-0.5-0.1-0.6-0.3
					c-0.2-0.2-0.3-0.5-0.3-1c0-0.3,0-0.5,0-0.8c0-0.3,0.1-0.6,0.1-0.8c0-0.4,0-0.7-0.1-1c-0.2-0.4-0.6-0.7-1.2-0.9
					c-0.6-0.2-1.2-0.4-1.9-0.5c-0.7-0.1-1.4-0.1-2.2-0.2c-0.7,0-1.4,0-1.9,0c-0.8,0-1.3,0.2-1.5,0.7c-0.2,0.5-0.3,1-0.3,1.7
					c0,0.5,0,0.9,0.1,1.4c0,0.5,0.1,0.9,0.1,1.4c0,1.6,0,3.2,0,4.8c0,1.6,0,3.1,0,4.7c0,2.2,0,4.4,0.1,6.6c0.1,2.2,0.2,4.3,0.5,6.5
					c0,0.3,0.1,0.6,0.1,0.8c0,0.2,0.2,0.4,0.6,0.5c0.1,0,0.3,0,0.6,0c0.3,0,0.5-0.1,0.6-0.1c0.4,0.1,0.6,0.4,0.6,0.8
					c0,0.4-0.3,0.7-1,0.8c-0.6,0.1-1.3,0.2-2.1,0.2c-0.6,0-1.1,0-1.5,0c-0.5,0-0.8,0-0.9,0c-1.2,0.1-2.2,0.2-3.2,0.2
					c-1,0.1-2.1,0.1-3.2,0.1c-0.4,0-0.8-0.1-1.2-0.2c-0.4-0.1-0.6-0.4-0.6-0.7c0-0.5,0.3-0.8,1-0.9
					C298.3,34.8,298.8,34.2,298.7,33.3z"/>
				<path class="st2" d="M327.8,5.6c-0.5,0-0.8-0.1-1-0.2c-0.2-0.1-0.3-0.3-0.3-0.5c0-0.1,0.1-0.2,0.3-0.3c0.2-0.1,0.4-0.1,0.5-0.2
					c0.7,0,2-0.1,3.7-0.1c1.7,0,3.5,0,5.3,0.1c1.8,0.1,3.4,0.1,4.8,0.2c1.4,0.1,2.2,0.2,2.3,0.3c0.3,0.3,0.3,0.5,0,0.8
					c-0.3,0.3-0.6,0.5-1.2,0.5c-0.6,0-1,0.2-1.2,0.6c-0.1,0.2-0.1,0.9,0.1,2c0.2,1.1,0.4,2.4,0.7,4c0.3,1.6,0.7,3.3,1.1,5.2
					c0.4,1.9,0.9,3.8,1.4,5.6c0.5,1.8,0.9,3.6,1.4,5.2c0.5,1.6,0.9,2.9,1.3,3.9c0.2,0.5,0.3,0.9,0.5,1.2c0.1,0.3,0.3,0.5,0.5,0.7
					c0.2,0.2,0.4,0.3,0.7,0.3c0.3,0.1,0.7,0.1,1.2,0.2c1.4,0.1,2.1,0.4,2.1,0.9c0,0.1-0.1,0.2-0.3,0.3c-0.2,0.1-0.6,0.2-1.2,0.2
					c-0.6,0.1-1.3,0.1-2.3,0.1c-1,0-2.3,0.1-4,0.1c-4.2,0-6.7,0-7.8-0.3c-1-0.2-0.7-0.6,0.8-1.2c0.8-0.3,1.2-0.6,1.4-0.8
					c0.1-0.2,0.1-0.6,0-1.3c-0.1-0.4-0.3-1-0.5-1.7c-0.2-0.7-0.4-1.4-0.6-2l-0.4-1.1c-0.3-0.7-0.8-1.1-1.5-1.1l-1.1-0.1
					c-0.6,0-1.5-0.2-2.5-0.4c-1-0.2-2-0.5-2.8-0.9c-0.9-0.3-1.6-0.6-2.3-0.8c-0.7-0.2-1-0.2-1.1-0.2c-0.1,0-0.3,0.4-0.5,1.2
					c-0.3,0.7-0.6,1.6-0.9,2.6c-0.3,1-0.6,2-1,3c-0.3,1-0.5,1.8-0.7,2.4c-0.1,0.5-0.2,0.8-0.1,0.9c0.3,0.2,0.7,0.4,1.4,0.5
					c1,0.1,1.5,0.4,1.5,0.9c0,0.2-0.2,0.3-0.7,0.5c-0.5,0.1-1.1,0.3-1.8,0.3c-0.7,0.1-1.5,0.1-2.3,0c-0.8,0-1.6-0.2-2.3-0.3
					c-1.2-0.3-1.8-0.6-1.9-1c0-0.4,0.5-0.6,1.7-0.6c0.4,0,0.8,0,1.3-0.1c0.4-0.1,0.7-0.2,0.8-0.3c0.1-0.1,0.3-0.7,0.6-1.6
					c0.3-0.9,0.7-1.9,1.1-3.1c0.4-1.1,0.7-2.2,1-3.2c0.3-1,0.5-1.6,0.5-1.8c0-0.2-0.1-0.4-0.4-0.4c-0.2-0.1-0.5-0.1-0.9,0
					c-0.3,0-0.7,0.1-1.1,0.3c-0.4,0.2-0.7,0.4-1,0.6c-0.6,0.5-1.1,0.7-1.5,0.6c-0.4,0-0.6-0.3-0.6-0.8c0-0.5,0.4-0.9,1.3-1.4
					c0.8-0.5,1.8-0.8,2.9-1l0.9-0.2c0.6-0.1,0.9-0.4,1.1-1l1.2-4.6c0.4-1.5,0.8-3.1,1.3-4.7c0.5-1.6,0.8-2.8,1.1-3.6
					c0.5-1.4,0.7-2.4,0.6-2.8C328.6,5.9,328.3,5.6,327.8,5.6z M335.6,25.2c0.1-0.2,0.2-0.6,0.2-1.1c0-0.5-0.2-1.3-0.4-2.3
					c-0.2-1-0.6-2.3-1.1-3.9c-0.5-1.6-1.1-3.5-1.7-5.7c-0.4-1.3-0.8-2.5-1.2-3.4c-0.4-0.9-0.6-1.4-0.7-1.4c-0.1,0-0.3,0.3-0.6,1
					c-0.3,0.7-0.5,1.5-0.9,2.5c-0.3,1-0.7,2.1-1,3.3c-0.4,1.2-0.7,2.4-1,3.5c-0.3,1.1-0.5,2.1-0.7,3c-0.2,0.9-0.3,1.5-0.3,1.8
					c0,0.3,0.2,0.6,0.7,0.8c0.5,0.2,1.3,0.5,2.5,0.9c1.2,0.3,2.2,0.6,3,0.8c0.7,0.2,1.3,0.3,1.7,0.4c0.4,0.1,0.7,0.1,0.9,0
					C335.2,25.5,335.4,25.3,335.6,25.2z"/>
			</g>
		</g>
	</g>
</g>
</svg>
