<?xml version="1.0" encoding="utf-8"?>
<!-- Generator: Adobe Illustrator 16.2.0, SVG Export Plug-In . SVG Version: 6.00 Build 0)  -->
<!DOCTYPE svg PUBLIC "-//W3C//DTD SVG 1.1//EN" "http://www.w3.org/Graphics/SVG/1.1/DTD/svg11.dtd">
<svg version="1.1" id="Layer_1" xmlns="http://www.w3.org/2000/svg" xmlns:xlink="http://www.w3.org/1999/xlink" x="0px" y="0px"
	 width="68.015px" height="101.017px" viewBox="0 0 68.015 101.017" enable-background="new 0 0 68.015 101.017"
	 xml:space="preserve">
<g>
	<path fill="#C8B375" d="M12.488,19.066l-7.376,7.832L2.758,39.911l1.604,8.313l-1.604,15.86c0,0,0.545,6.946,0.964,7.4
		c0.417,0.455,8.767,10.472,8.767,10.472s6.786,10.676,6.471,11.131c-0.32,0.452,15.047,3.625,15.047,3.625l14.544-1.811
		l10.877-12.236l5.062-11.331l1.988-6.496V57.89l-1.401-10.738l2.205-6.936l-2.327-13.318l-1.81-8.887l-10.06-6.952l-14.05,3.326
		L12.488,19.066z"/>
	<g>
		<g>
			<polygon fill="#864D23" points="65.983,65.682 64.953,48.091 65.776,41.717 67.995,41.135 67.28,47.569 67.895,66.262 			"/>
		</g>
	</g>
	<polygon fill="#D6BE8A" points="8.166,45.552 6.99,46.357 7.579,52.367 9.779,55.321 17.229,56.731 25.892,57.134 29.718,54.717
		31.229,50.399 31.672,46.898 31.672,45.05 28.511,44.243 23.172,43.638 13.906,44.243 	"/>
	<polygon fill="#D6BE8A" points="61.099,45.552 62.273,46.357 61.686,52.367 59.485,55.321 52.034,56.731 43.372,57.134
		39.546,54.717 38.035,50.399 37.591,46.898 37.591,45.05 40.753,44.243 46.092,43.638 55.357,44.243 	"/>
	<polygon fill="#D6BE8A" points="34.501,48.122 34.501,75.767 36.826,75.243 42.291,69.957 37.751,48.51 	"/>
	<path fill="#8B6F49" d="M31.672,47.227c0,0,0.99-0.329,3.039-0.329c1.741,0,3.04,0.329,3.04,0.329v4.01c0,0-1.21-0.828-3.04-0.85
		c-1.599-0.018-3.039,0.85-3.039,0.85V47.227z"/>
	<rect x="62.5" y="47.152" fill="#8B6F49" width="3.977" height="3.235"/>
	<rect x="3.231" y="47.152" fill="#8B6F49" width="3.759" height="4.085"/>
	<g>
		<path fill="#8B6F49" stroke="#8B6F49" stroke-width="1.2085" stroke-miterlimit="10" d="M42.646,57.879
			c-2.27,0-3.601-2-4.028-3.18c-0.025-0.071-2.484-7.465-1.762-9.353c0.431-1.131,1.932-2.428,9.76-2.428
			c1.823,0,3.513,0.07,4.521,0.114c5.632,0.236,9.374,1.237,9.783,1.349c2.565,0.711,2.287,2.776,2.123,4.007
			c-0.019,0.125-0.035,0.25-0.05,0.372c-0.15,1.296-0.431,2.809-0.595,3.714c-0.046,0.248-0.082,0.448-0.103,0.585
			c-0.507,2.974-2.914,3.603-5.332,3.993C53.58,57.597,45.001,57.879,42.646,57.879z M46.615,44.557
			c-7.488,0-8.176,1.235-8.229,1.374c-0.353,0.937,1.215,6.667,1.773,8.209c0.008,0.02,0.808,2.1,2.486,2.1
			c2.25,0,10.813-0.285,14.058-0.806c2.778-0.448,3.706-1.064,3.975-2.651c0.025-0.14,0.062-0.349,0.108-0.604
			c0.161-0.885,0.434-2.371,0.58-3.612c0.016-0.13,0.034-0.265,0.051-0.395c0.192-1.424,0.162-1.909-0.935-2.21
			c-0.391-0.111-3.964-1.066-9.416-1.295C50.07,44.626,48.404,44.557,46.615,44.557z"/>
	</g>
	<path fill="#864D23" d="M53.693,15.703c0,0-7.286,7.874-18.234,10.617c-9.13,2.285-20.315,2.179-25.464-2.97
		c0,0-2.66,3.382-4.679,9.902c-1.129,3.648-1.78,11.777-1.78,11.777l-0.785,0.878c0,0-2.313-8.287-2.723-13.679
		c-0.271-3.549,1.488-12.426,2.723-15.839c1.237-3.416,4.499-7.186,8.063-10.243C14.755,2.765,22.478-0.013,29.112,0
		c5.795,0.011,11.246,0.382,15.704,1.366c6.755,1.488,10.661,3.26,13.247,5.051c4.437,3.079,8.09,5.634,9.439,11.316
		c0.597,2.513,0.507,16.133,0.507,16.133l-0.015,7.269l-0.715,6.017l-2.032-0.254c0,0,0.133-2.37,0.528-5.181
		c0.396-2.813-0.427-8.549-2.633-14.493C60.938,21.282,53.693,15.703,53.693,15.703z"/>
	<g>
		<g>
			<path fill="#8B6F49" stroke="#8B6F49" stroke-width="1.2085" stroke-miterlimit="10" d="M12.302,57.052
				c-2.421-0.39-4.826-1.019-5.332-3.993c-0.022-0.138-0.059-0.337-0.103-0.585c-0.166-0.905-0.444-2.417-0.595-3.714
				c-0.015-0.122-0.033-0.247-0.051-0.372c-0.163-1.231-0.441-3.296,2.124-4.007c0.407-0.112,4.149-1.113,9.783-1.349
				c1.011-0.043,2.696-0.114,4.521-0.114c7.827,0,9.328,1.296,9.762,2.428c0.722,1.888-1.739,9.282-1.765,9.353
				c-0.428,1.18-1.759,3.18-4.029,3.18C24.264,57.879,15.684,57.597,12.302,57.052z M18.196,44.667
				c-5.449,0.229-9.023,1.184-9.415,1.295c-1.095,0.301-1.127,0.787-0.935,2.21c0.018,0.13,0.035,0.265,0.052,0.395
				c0.147,1.242,0.418,2.727,0.579,3.612c0.047,0.255,0.085,0.464,0.108,0.604c0.27,1.587,1.196,2.203,3.975,2.651
				c3.244,0.521,11.808,0.806,14.057,0.806c1.68,0,2.48-2.08,2.487-2.1c0.561-1.542,2.128-7.272,1.773-8.209
				c-0.052-0.139-0.739-1.374-8.229-1.374C20.858,44.557,19.194,44.626,18.196,44.667z"/>
		</g>
	</g>
	<g>
		<g>
			<polygon fill="#864D23" points="3.439,65.682 1.529,66.262 2.713,48.289 1.157,37.875 4.361,37.882 4.69,48.825 			"/>
		</g>
	</g>
	<path fill="#864D23" d="M35.182,101.017c-7.477-0.285-15.25,0.237-18.905-4.746C2.758,77.838,1.529,66.262,1.529,66.262l1.91-0.58
		c0,0,6.851,12.7,8.382,15.447c1.798,3.224,8.051,1.515,8.051,1.515c-0.242,8.098,7.26,8.524,7.26,8.524s2.177-0.845,2.391-3.645
		c0.155-2.044-0.82-3.933-0.82-3.933s2.73,0.461,6.009,0.461c3.279,0,6.008-0.461,6.008-0.461s-0.974,1.889-0.819,3.933
		c0.215,2.799,2.392,3.645,2.392,3.645s7.501-0.426,7.259-8.524c0,0,6.254,1.709,8.053-1.515c1.529-2.747,8.381-15.447,8.381-15.447
		l1.911,0.58c0,0-1.229,11.576-14.749,30.009C49.489,101.254,42.656,100.731,35.182,101.017z"/>
	<path fill="#D6BE8A" d="M26.207,69.072c-2.867-0.315-3.785-0.479-10.385,6.437c-4.499,4.718-10.506,1.645-10.506,1.645
		c5.834,8.599,13.76,5.393,16.898,4.269c2.895-1.038,9.457-7.065,9.457-7.065L26.207,69.072z"/>
	<path fill="#D6BE8A" d="M41.752,68.766c2.867-0.315,5.092-0.173,11.688,6.743c4.501,4.718,10.509,1.645,10.509,1.645
		c-5.836,8.599-13.762,5.393-16.9,4.269c-2.894-1.038-9.458-7.065-9.458-7.065L41.752,68.766z"/>
	<path fill="#864D23" d="M27.132,69.957c-2.867-0.315-3.786-0.479-10.385,6.437c-4.499,4.72-11.431,0.76-11.431,0.76
		c5.834,8.599,14.686,6.276,17.823,5.156c2.894-1.038,9.458-7.067,9.458-7.067L27.132,69.957z"/>
	<path fill="#864D23" d="M42.291,69.957c2.868-0.315,3.786-0.479,10.383,6.437c4.501,4.72,11.431,0.76,11.431,0.76
		c-5.833,8.599-14.684,6.276-17.82,5.156c-2.895-1.038-9.458-7.067-9.458-7.067L42.291,69.957z"/>
</g>
</svg>
