<?xml version="1.0" encoding="utf-8"?>
<!-- Generator: Adobe Illustrator 16.2.0, SVG Export Plug-In . SVG Version: 6.00 Build 0)  -->
<!DOCTYPE svg PUBLIC "-//W3C//DTD SVG 1.1//EN" "http://www.w3.org/Graphics/SVG/1.1/DTD/svg11.dtd">
<svg version="1.1" id="Layer_1" xmlns="http://www.w3.org/2000/svg" xmlns:xlink="http://www.w3.org/1999/xlink" x="0px" y="0px"
	 width="315.497px" height="101.339px" viewBox="0 0 315.497 101.339" enable-background="new 0 0 315.497 101.339"
	 xml:space="preserve">
<rect x="2.469" y="2.469" fill="#C8B375" stroke="#864D23" stroke-width="4.9377" stroke-miterlimit="10" width="310.559" height="96.401"/>
<g>
	<g>
		<path fill="#D6BE8A" d="M22.991,66.325h6.589v3.376c0,2.527,0.878,4.668,2.636,6.424c1.757,1.759,3.898,2.637,6.426,2.637
			c2.525,0,4.667-0.878,6.426-2.637c1.756-1.756,2.635-3.897,2.635-6.424V69.29c0-2.306-0.796-4.31-2.389-6.014L28.592,45.072
			c-3.406-2.966-5.106-6.755-5.106-11.368c0-4.339,1.467-8.03,4.406-11.08c2.937-3.047,6.521-4.571,10.75-4.571
			c4.173,0,7.743,1.524,10.708,4.571c2.964,3.049,4.449,6.741,4.449,11.08v2.965h-6.591v-3.376c0-2.472-0.837-4.598-2.512-6.385
			c-1.676-1.783-3.695-2.677-6.054-2.677c-2.417,0-4.449,0.894-6.095,2.677c-1.649,1.787-2.472,3.913-2.472,6.385v0.412
			c-0.056,2.197,0.769,4.256,2.472,6.178l16.721,18.123c3.349,3.076,5.024,6.836,5.024,11.285c0,4.339-1.524,8.033-4.571,11.08
			c-3.048,3.047-6.743,4.571-11.08,4.571c-4.339,0-8.032-1.524-11.08-4.571c-3.047-3.047-4.571-6.741-4.571-11.08V66.325z"/>
		<polygon fill="#D6BE8A" points="81.065,18.546 74.474,18.546 60.388,84.446 67.061,84.446 77.769,33.046 88.642,84.446
			95.314,84.446 		"/>
		<path fill="#D6BE8A" d="M109.319,84.446l-13.344-65.9h6.671l9.968,48.603l9.968-48.603h6.672l-13.346,65.9H109.319z"/>
		<path fill="#D6BE8A" d="M137.985,84.446v-65.9h6.59v65.9H137.985z"/>
		<path fill="#D6BE8A" d="M152.648,24.726v-6.18h28.831v6.18h-11.204v59.72h-6.589v-59.72H152.648z"/>
		<path fill="#D6BE8A" d="M188.479,66.325h6.591v3.376c0,2.527,0.877,4.668,2.635,6.424c1.757,1.759,3.899,2.637,6.426,2.637
			c2.525,0,4.667-0.878,6.424-2.637c1.757-1.756,2.636-3.897,2.636-6.424V69.29c0-2.306-0.797-4.31-2.388-6.014l-16.724-18.204
			c-3.405-2.966-5.107-6.755-5.107-11.368c0-4.339,1.469-8.03,4.407-11.08c2.938-3.047,6.521-4.571,10.75-4.571
			c4.172,0,7.742,1.524,10.708,4.571c2.966,3.049,4.448,6.741,4.448,11.08v2.965h-6.59v-3.376c0-2.472-0.836-4.598-2.512-6.385
			c-1.676-1.783-3.693-2.677-6.054-2.677c-2.418,0-4.449,0.894-6.097,2.677c-1.647,1.787-2.471,3.913-2.471,6.385v0.412
			c-0.056,2.197,0.768,4.256,2.471,6.178l16.723,18.123c3.349,3.076,5.024,6.836,5.024,11.285c0,4.339-1.524,8.033-4.572,11.08
			c-3.047,3.047-6.741,4.571-11.078,4.571c-4.34,0-8.032-1.524-11.08-4.571c-3.048-3.047-4.572-6.741-4.572-11.08V66.325z"/>
		<path fill="#D6BE8A" d="M229.254,84.446v-65.9h6.589v32.538l17.381-32.538h7.414L246.14,45.647l14.911,38.798h-7.085
			L242.022,53.31l-6.179,11.614v19.522H229.254z"/>
		<path fill="#D6BE8A" d="M281.561,84.446V64.924l-12.849-46.378h6.837l9.308,34.681l9.309-34.681h6.836l-12.849,46.378v19.522
			H281.561z"/>
	</g>
</g>
<g>
	<g>
		<path fill="#864D23" d="M18.838,66.325h6.589v3.376c0,2.527,0.878,4.668,2.636,6.424c1.758,1.759,3.898,2.637,6.425,2.637
			c2.525,0,4.667-0.878,6.426-2.637c1.757-1.756,2.636-3.897,2.636-6.424V69.29c0-2.306-0.797-4.31-2.389-6.014L24.439,45.072
			c-3.405-2.966-5.106-6.755-5.106-11.368c0-4.339,1.467-8.03,4.406-11.08c2.937-3.047,6.521-4.571,10.75-4.571
			c4.172,0,7.743,1.524,10.709,4.571c2.965,3.049,4.449,6.741,4.449,11.08v2.965h-6.592v-3.376c0-2.472-0.837-4.598-2.511-6.385
			c-1.677-1.783-3.695-2.677-6.055-2.677c-2.416,0-4.449,0.894-6.095,2.677c-1.647,1.787-2.472,3.913-2.472,6.385v0.412
			c-0.055,2.197,0.769,4.256,2.472,6.178l16.722,18.123c3.349,3.076,5.024,6.836,5.024,11.285c0,4.339-1.524,8.033-4.571,11.08
			c-3.048,3.047-6.742,4.571-11.08,4.571c-4.338,0-8.033-1.524-11.079-4.571c-3.048-3.047-4.571-6.741-4.571-11.08V66.325z"/>
		<polygon fill="#864D23" points="76.913,18.546 70.321,18.546 56.236,84.446 62.908,84.446 73.617,33.046 84.49,84.446
			91.162,84.446 		"/>
		<path fill="#864D23" d="M105.167,84.446l-13.345-65.9h6.672l9.968,48.603l9.967-48.603h6.672l-13.344,65.9H105.167z"/>
		<path fill="#864D23" d="M133.833,84.446v-65.9h6.591v65.9H133.833z"/>
		<path fill="#864D23" d="M148.495,24.726v-6.18h28.833v6.18h-11.204v59.72h-6.589v-59.72H148.495z"/>
		<path fill="#864D23" d="M184.327,66.325h6.591v3.376c0,2.527,0.877,4.668,2.635,6.424c1.758,1.759,3.899,2.637,6.426,2.637
			c2.526,0,4.667-0.878,6.424-2.637c1.757-1.756,2.637-3.897,2.637-6.424V69.29c0-2.306-0.798-4.31-2.389-6.014l-16.722-18.204
			c-3.406-2.966-5.107-6.755-5.107-11.368c0-4.339,1.468-8.03,4.407-11.08c2.938-3.047,6.521-4.571,10.75-4.571
			c4.172,0,7.743,1.524,10.708,4.571c2.967,3.049,4.449,6.741,4.449,11.08v2.965h-6.59v-3.376c0-2.472-0.837-4.598-2.513-6.385
			c-1.675-1.783-3.693-2.677-6.054-2.677c-2.417,0-4.448,0.894-6.097,2.677c-1.647,1.787-2.471,3.913-2.471,6.385v0.412
			c-0.056,2.197,0.769,4.256,2.471,6.178l16.723,18.123c3.348,3.076,5.025,6.836,5.025,11.285c0,4.339-1.524,8.033-4.573,11.08
			c-3.047,3.047-6.741,4.571-11.078,4.571c-4.34,0-8.031-1.524-11.08-4.571s-4.572-6.741-4.572-11.08V66.325z"/>
		<path fill="#864D23" d="M225.101,84.446v-65.9h6.59v32.538l17.381-32.538h7.415l-14.499,27.102l14.91,38.798h-7.083L237.871,53.31
			l-6.18,11.614v19.522H225.101z"/>
		<path fill="#864D23" d="M277.409,84.446V64.924l-12.85-46.378h6.837l9.308,34.681l9.31-34.681h6.837L284,64.924v19.522H277.409z"
			/>
	</g>
</g>
</svg>
