<svg xmlns="http://www.w3.org/2000/svg"><symbol id="head" viewBox="0 0 68.015 101.017"><path fill="#C8B375" d="M12.488 19.066l-7.376 7.832-2.354 13.013 1.604 8.313-1.604 15.86s.545 6.946.964 7.4c.417.455 8.767 10.472 8.767 10.472s6.786 10.676 6.471 11.131c-.32.452 15.047 3.625 15.047 3.625l14.544-1.811 10.877-12.236 5.062-11.331 1.988-6.496V57.89l-1.401-10.738 2.205-6.936-2.327-13.318-1.81-8.887-10.06-6.952-14.05 3.326-26.547 4.681z"/><path fill="#864D23" d="M65.983 65.682l-1.03-17.591.823-6.374 2.219-.582-.715 6.434.615 18.693z"/><path fill="#D6BE8A" d="M8.166 45.552l-1.176.805.589 6.01 2.2 2.954 7.45 1.41 8.663.403 3.826-2.417 1.511-4.318.443-3.501V45.05l-3.161-.807-5.339-.605-9.266.605zM61.099 45.552l1.174.805-.587 6.01-2.201 2.954-7.451 1.41-8.662.403-3.826-2.417-1.511-4.318-.444-3.501V45.05l3.162-.807 5.339-.605 9.265.605z"/><path fill="#D6BE8A" d="M34.501 48.122v27.645l2.325-.524 5.465-5.286-4.54-21.447z"/><path fill="#8B6F49" d="M31.672 47.227s.99-.329 3.039-.329c1.741 0 3.04.329 3.04.329v4.01s-1.21-.828-3.04-.85c-1.599-.018-3.039.85-3.039.85v-4.01zM62.5 47.152h3.977v3.235H62.5zM3.231 47.152H6.99v4.085H3.231z"/><path fill="#8B6F49" stroke="#8B6F49" stroke-width="1.208" stroke-miterlimit="10" d="M42.646 57.879c-2.27 0-3.601-2-4.028-3.18-.025-.071-2.484-7.465-1.762-9.353.431-1.131 1.932-2.428 9.76-2.428 1.823 0 3.513.07 4.521.114 5.632.236 9.374 1.237 9.783 1.349 2.565.711 2.287 2.776 2.123 4.007-.019.125-.035.25-.05.372-.15 1.296-.431 2.809-.595 3.714-.046.248-.082.448-.103.585-.507 2.974-2.914 3.603-5.332 3.993-3.383.545-11.962.827-14.317.827zm3.969-13.322c-7.488 0-8.176 1.235-8.229 1.374-.353.937 1.215 6.667 1.773 8.209.008.02.808 2.1 2.486 2.1 2.25 0 10.813-.285 14.058-.806 2.778-.448 3.706-1.064 3.975-2.651l.108-.604c.161-.885.434-2.371.58-3.612l.051-.395c.192-1.424.162-1.909-.935-2.21-.391-.111-3.964-1.066-9.416-1.295-.996-.041-2.662-.11-4.451-.11z"/><path fill="#864D23" d="M53.693 15.703s-7.286 7.874-18.234 10.617c-9.13 2.285-20.315 2.179-25.464-2.97 0 0-2.66 3.382-4.679 9.902-1.129 3.648-1.78 11.777-1.78 11.777l-.785.878S.438 37.62.028 32.228c-.271-3.549 1.488-12.426 2.723-15.839 1.237-3.416 4.499-7.186 8.063-10.243C14.755 2.765 22.478-.013 29.112 0c5.795.011 11.246.382 15.704 1.366 6.755 1.488 10.661 3.26 13.247 5.051 4.437 3.079 8.09 5.634 9.439 11.316.597 2.513.507 16.133.507 16.133l-.015 7.269-.715 6.017-2.032-.254s.133-2.37.528-5.181c.396-2.813-.427-8.549-2.633-14.493-2.204-5.942-9.449-11.521-9.449-11.521z"/><path fill="#8B6F49" stroke="#8B6F49" stroke-width="1.208" stroke-miterlimit="10" d="M12.302 57.052c-2.421-.39-4.826-1.019-5.332-3.993-.022-.138-.059-.337-.103-.585-.166-.905-.444-2.417-.595-3.714-.015-.122-.033-.247-.051-.372-.163-1.231-.441-3.296 2.124-4.007.407-.112 4.149-1.113 9.783-1.349 1.011-.043 2.696-.114 4.521-.114 7.827 0 9.328 1.296 9.762 2.428.722 1.888-1.739 9.282-1.765 9.353-.428 1.18-1.759 3.18-4.029 3.18-2.353 0-10.933-.282-14.315-.827zm5.894-12.385c-5.449.229-9.023 1.184-9.415 1.295-1.095.301-1.127.787-.935 2.21l.052.395c.147 1.242.418 2.727.579 3.612.047.255.085.464.108.604.27 1.587 1.196 2.203 3.975 2.651 3.244.521 11.808.806 14.057.806 1.68 0 2.48-2.08 2.487-2.1.561-1.542 2.128-7.272 1.773-8.209-.052-.139-.739-1.374-8.229-1.374-1.79 0-3.454.069-4.452.11z"/><path fill="#864D23" d="M3.439 65.682l-1.91.58 1.184-17.973-1.556-10.414 3.204.007.329 10.943z"/><path fill="#864D23" d="M35.182 101.017c-7.477-.285-15.25.237-18.905-4.746C2.758 77.838 1.529 66.262 1.529 66.262l1.91-.58s6.851 12.7 8.382 15.447c1.798 3.224 8.051 1.515 8.051 1.515-.242 8.098 7.26 8.524 7.26 8.524s2.177-.845 2.391-3.645c.155-2.044-.82-3.933-.82-3.933s2.73.461 6.009.461c3.279 0 6.008-.461 6.008-.461s-.974 1.889-.819 3.933c.215 2.799 2.392 3.645 2.392 3.645s7.501-.426 7.259-8.524c0 0 6.254 1.709 8.053-1.515 1.529-2.747 8.381-15.447 8.381-15.447l1.911.58s-1.229 11.576-14.749 30.009c-3.659 4.983-10.492 4.46-17.966 4.746z"/><path fill="#D6BE8A" d="M26.207 69.072c-2.867-.315-3.785-.479-10.385 6.437-4.499 4.718-10.506 1.645-10.506 1.645 5.834 8.599 13.76 5.393 16.898 4.269 2.895-1.038 9.457-7.065 9.457-7.065l-5.464-5.286zM41.752 68.766c2.867-.315 5.092-.173 11.688 6.743 4.501 4.718 10.509 1.645 10.509 1.645-5.836 8.599-13.762 5.393-16.9 4.269-2.894-1.038-9.458-7.065-9.458-7.065l4.161-5.592z"/><path fill="#864D23" d="M27.132 69.957c-2.867-.315-3.786-.479-10.385 6.437-4.499 4.72-11.431.76-11.431.76 5.834 8.599 14.686 6.276 17.823 5.156 2.894-1.038 9.458-7.067 9.458-7.067l-5.465-5.286zM42.291 69.957c2.868-.315 3.786-.479 10.383 6.437 4.501 4.72 11.431.76 11.431.76-5.833 8.599-14.684 6.276-17.82 5.156-2.895-1.038-9.458-7.067-9.458-7.067l5.464-5.286z"/></symbol><symbol id="logo" viewBox="0 0 315.497 101.339"><path fill="#46454d" stroke="#864D23" stroke-width="4.938" stroke-miterlimit="10" d="M2.469 2.469h310.559V98.87H2.469z"/><g fill="#46454d"><path d="M22.991 66.325h6.589v3.376c0 2.527.878 4.668 2.636 6.424 1.757 1.759 3.898 2.637 6.426 2.637 2.525 0 4.667-.878 6.426-2.637 1.756-1.756 2.635-3.897 2.635-6.424v-.411c0-2.306-.796-4.31-2.389-6.014L28.592 45.072c-3.406-2.966-5.106-6.755-5.106-11.368 0-4.339 1.467-8.03 4.406-11.08 2.937-3.047 6.521-4.571 10.75-4.571 4.173 0 7.743 1.524 10.708 4.571 2.964 3.049 4.449 6.741 4.449 11.08v2.965h-6.591v-3.376c0-2.472-.837-4.598-2.512-6.385-1.676-1.783-3.695-2.677-6.054-2.677-2.417 0-4.449.894-6.095 2.677-1.649 1.787-2.472 3.913-2.472 6.385v.412c-.056 2.197.769 4.256 2.472 6.178l16.721 18.123c3.349 3.076 5.024 6.836 5.024 11.285 0 4.339-1.524 8.033-4.571 11.08-3.048 3.047-6.743 4.571-11.08 4.571-4.339 0-8.032-1.524-11.08-4.571-3.047-3.047-4.571-6.741-4.571-11.08v-2.966zM81.065 18.546h-6.591l-14.086 65.9h6.673l10.708-51.4 10.873 51.4h6.672zM109.319 84.446l-13.344-65.9h6.671l9.968 48.603 9.968-48.603h6.672l-13.346 65.9h-6.589zM137.985 84.446v-65.9h6.59v65.9h-6.59zM152.648 24.726v-6.18h28.831v6.18h-11.204v59.72h-6.589v-59.72h-11.038zM188.479 66.325h6.591v3.376c0 2.527.877 4.668 2.635 6.424 1.757 1.759 3.899 2.637 6.426 2.637 2.525 0 4.667-.878 6.424-2.637 1.757-1.756 2.636-3.897 2.636-6.424v-.411c0-2.306-.797-4.31-2.388-6.014l-16.724-18.204c-3.405-2.966-5.107-6.755-5.107-11.368 0-4.339 1.469-8.03 4.407-11.08 2.938-3.047 6.521-4.571 10.75-4.571 4.172 0 7.742 1.524 10.708 4.571 2.966 3.049 4.448 6.741 4.448 11.08v2.965h-6.59v-3.376c0-2.472-.836-4.598-2.512-6.385-1.676-1.783-3.693-2.677-6.054-2.677-2.418 0-4.449.894-6.097 2.677-1.647 1.787-2.471 3.913-2.471 6.385v.412c-.056 2.197.768 4.256 2.471 6.178l16.723 18.123c3.349 3.076 5.024 6.836 5.024 11.285 0 4.339-1.524 8.033-4.572 11.08-3.047 3.047-6.741 4.571-11.078 4.571-4.34 0-8.032-1.524-11.08-4.571-3.048-3.047-4.572-6.741-4.572-11.08v-2.966zM229.254 84.446v-65.9h6.589v32.538l17.381-32.538h7.414L246.14 45.647l14.911 38.798h-7.085L242.022 53.31l-6.179 11.614v19.522h-6.589zM281.561 84.446V64.924l-12.849-46.378h6.837l9.308 34.681 9.309-34.681h6.836l-12.849 46.378v19.522h-6.592z"/></g><g fill="#c8b374"><path d="M18.838 66.325h6.589v3.376c0 2.527.878 4.668 2.636 6.424 1.758 1.759 3.898 2.637 6.425 2.637 2.525 0 4.667-.878 6.426-2.637 1.757-1.756 2.636-3.897 2.636-6.424v-.411c0-2.306-.797-4.31-2.389-6.014L24.439 45.072c-3.405-2.966-5.106-6.755-5.106-11.368 0-4.339 1.467-8.03 4.406-11.08 2.937-3.047 6.521-4.571 10.75-4.571 4.172 0 7.743 1.524 10.709 4.571 2.965 3.049 4.449 6.741 4.449 11.08v2.965h-6.592v-3.376c0-2.472-.837-4.598-2.511-6.385-1.677-1.783-3.695-2.677-6.055-2.677-2.416 0-4.449.894-6.095 2.677-1.647 1.787-2.472 3.913-2.472 6.385v.412c-.055 2.197.769 4.256 2.472 6.178l16.722 18.123c3.349 3.076 5.024 6.836 5.024 11.285 0 4.339-1.524 8.033-4.571 11.08-3.048 3.047-6.742 4.571-11.08 4.571s-8.033-1.524-11.079-4.571c-3.048-3.047-4.571-6.741-4.571-11.08v-2.966zM76.913 18.546h-6.592l-14.085 65.9h6.672l10.709-51.4 10.873 51.4h6.672zM105.167 84.446l-13.345-65.9h6.672l9.968 48.603 9.967-48.603h6.672l-13.344 65.9h-6.59zM133.833 84.446v-65.9h6.591v65.9h-6.591zM148.495 24.726v-6.18h28.833v6.18h-11.204v59.72h-6.589v-59.72h-11.04zM184.327 66.325h6.591v3.376c0 2.527.877 4.668 2.635 6.424 1.758 1.759 3.899 2.637 6.426 2.637 2.526 0 4.667-.878 6.424-2.637 1.757-1.756 2.637-3.897 2.637-6.424v-.411c0-2.306-.798-4.31-2.389-6.014l-16.722-18.204c-3.406-2.966-5.107-6.755-5.107-11.368 0-4.339 1.468-8.03 4.407-11.08 2.938-3.047 6.521-4.571 10.75-4.571 4.172 0 7.743 1.524 10.708 4.571 2.967 3.049 4.449 6.741 4.449 11.08v2.965h-6.59v-3.376c0-2.472-.837-4.598-2.513-6.385-1.675-1.783-3.693-2.677-6.054-2.677-2.417 0-4.448.894-6.097 2.677-1.647 1.787-2.471 3.913-2.471 6.385v.412c-.056 2.197.769 4.256 2.471 6.178l16.723 18.123c3.348 3.076 5.025 6.836 5.025 11.285 0 4.339-1.524 8.033-4.573 11.08-3.047 3.047-6.741 4.571-11.078 4.571-4.34 0-8.031-1.524-11.08-4.571s-4.572-6.741-4.572-11.08v-2.966zM225.101 84.446v-65.9h6.59v32.538l17.381-32.538h7.415l-14.499 27.102 14.91 38.798h-7.083L237.871 53.31l-6.18 11.614v19.522h-6.59zM277.409 84.446V64.924l-12.85-46.378h6.837l9.308 34.681 9.31-34.681h6.837L284 64.924v19.522h-6.591z"/></g></symbol><symbol id="symbols"/></svg>
