<svg xmlns="http://www.w3.org/2000/svg"><symbol id="briefcase" viewBox="0 0 28 28"><title>briefcase</title><path d="M10 4h8V2h-8v2zm18 10v7.5c0 1.375-1.125 2.5-2.5 2.5h-23A2.507 2.507 0 0 1 0 21.5V14h10.5v2.5c0 .547.453 1 1 1h5c.547 0 1-.453 1-1V14H28zm-12 0v2h-4v-2h4zm12-7.5v6H0v-6C0 5.125 1.125 4 2.5 4H8V1.5A1.5 1.5 0 0 1 9.5 0h9A1.5 1.5 0 0 1 20 1.5V4h5.5C26.875 4 28 5.125 28 6.5z"/></symbol><symbol id="calendar" viewBox="0 0 32 32"><title>calendar</title><path d="M10 12h4v4h-4zm6 0h4v4h-4zm6 0h4v4h-4zM4 24h4v4H4zm6 0h4v4h-4zm6 0h4v4h-4zm-6-6h4v4h-4zm6 0h4v4h-4zm6 0h4v4h-4zM4 18h4v4H4zM26 0v2h-4V0H8v2H4V0H0v32h30V0h-4zm2 30H2V8h26v22z"/></symbol><symbol id="circle-down" viewBox="0 0 32 32"><title>circle-down</title><path d="M32 16c0-8.837-7.163-16-16-16S0 7.163 0 16s7.163 16 16 16 16-7.163 16-16zM3 16C3 8.82 8.82 3 16 3s13 5.82 13 13-5.82 13-13 13S3 23.18 3 16z"/><path d="M9.914 11.086l-2.829 2.829 8.914 8.914 8.914-8.914-2.828-2.828-6.086 6.086z"/></symbol><symbol id="circle-up" viewBox="0 0 32 32"><title>circle-up</title><path d="M0 16c0 8.837 7.163 16 16 16s16-7.163 16-16S24.837 0 16 0 0 7.163 0 16zm29 0c0 7.18-5.82 13-13 13S3 23.18 3 16 8.82 3 16 3s13 5.82 13 13z"/><path d="M22.086 20.914l2.829-2.829-8.914-8.914-8.914 8.914 2.828 2.828 6.086-6.086z"/></symbol><symbol id="download" viewBox="0 0 32 32"><title>cloud-download</title><path d="M27.844 11.252A7.438 7.438 0 0 0 20.411 4a7.42 7.42 0 0 0-5.839 2.835 4.168 4.168 0 0 0-3.303-1.624 4.177 4.177 0 0 0-4.133 4.771 6.056 6.056 0 0 0-7.134 5.96A6.056 6.056 0 0 0 6.056 22h2.868l7.078 7.328L23.08 22h3.484a5.45 5.45 0 0 0 1.282-10.747zM16 26l-6-6h4v-6h4v6h4l-6 6z"/></symbol><symbol id="envelop" viewBox="0 0 32 32"><title>envelop</title><path d="M29 4H3C1.35 4 0 5.35 0 7v20c0 1.65 1.35 3 3 3h26c1.65 0 3-1.35 3-3V7c0-1.65-1.35-3-3-3zM12.461 17.199L4 23.789V8.113l8.461 9.086zM5.512 8h20.976L16 15.875 5.512 8zm7.278 9.553L16 21l3.21-3.447L25.79 26H6.211l6.58-8.447zm6.749-.354L28 8.113v15.676l-8.461-6.59z"/></symbol><symbol id="facebook" viewBox="0 0 32 32"><title>facebook2</title><path d="M29 0H3C1.35 0 0 1.35 0 3v26c0 1.65 1.35 3 3 3h13V18h-4v-4h4v-2c0-3.306 2.694-6 6-6h4v4h-4c-1.1 0-2 .9-2 2v2h6l-1 4h-5v14h9c1.65 0 3-1.35 3-3V3c0-1.65-1.35-3-3-3z"/></symbol><symbol id="github" viewBox="0 0 32 32"><title>github</title><path d="M16 .395c-8.836 0-16 7.163-16 16 0 7.069 4.585 13.067 10.942 15.182.8.148 1.094-.347 1.094-.77 0-.381-.015-1.642-.022-2.979-4.452.968-5.391-1.888-5.391-1.888-.728-1.849-1.776-2.341-1.776-2.341-1.452-.993.11-.973.11-.973 1.606.113 2.452 1.649 2.452 1.649 1.427 2.446 3.743 1.739 4.656 1.33.143-1.034.558-1.74 1.016-2.14-3.554-.404-7.29-1.777-7.29-7.907 0-1.747.625-3.174 1.649-4.295-.166-.403-.714-2.03.155-4.234 0 0 1.344-.43 4.401 1.64a15.353 15.353 0 0 1 4.005-.539c1.359.006 2.729.184 4.008.539 3.054-2.07 4.395-1.64 4.395-1.64.871 2.204.323 3.831.157 4.234 1.026 1.12 1.647 2.548 1.647 4.295 0 6.145-3.743 7.498-7.306 7.895.574.497 1.085 1.47 1.085 2.963 0 2.141-.019 3.864-.019 4.391 0 .426.288.925 1.099.768C27.421 29.457 32 23.462 32 16.395c0-8.837-7.164-16-16-16z"/></symbol><symbol id="graduation-cap" viewBox="0 0 36 28"><title>graduation-cap</title><path d="M27.719 13.062L28 17.999c.125 2.203-4.484 4-10 4s-10.125-1.797-10-4l.281-4.937 8.969 2.828c.25.078.5.109.75.109s.5-.031.75-.109zM36 8a.522.522 0 0 1-.344.484l-17.5 5.5C18.093 14 18.047 14 18 14s-.094 0-.156-.016L7.657 10.765c-.891.703-1.516 2.422-1.641 4.531.594.344.984.969.984 1.703a1.99 1.99 0 0 1-.906 1.672L7 25.437a.513.513 0 0 1-.5.563h-3a.512.512 0 0 1-.5-.563l.906-6.766A1.99 1.99 0 0 1 3 16.999c0-.75.422-1.391 1.016-1.734.094-1.828.562-3.797 1.531-5.156L.344 8.484C.141 8.406 0 8.218 0 8s.141-.406.344-.484l17.5-5.5C17.907 2 17.953 2 18 2s.094 0 .156.016l17.5 5.5A.523.523 0 0 1 36 8z"/></symbol><symbol id="location" viewBox="0 0 32 32"><title>location2</title><path d="M16 0C10.477 0 6 4.477 6 10c0 10 10 22 10 22s10-12 10-22c0-5.523-4.477-10-10-10zm0 16.125a6.125 6.125 0 1 1 0-12.25 6.125 6.125 0 0 1 0 12.25zM12.125 10a3.875 3.875 0 1 1 7.75 0 3.875 3.875 0 0 1-7.75 0z"/></symbol><symbol id="phone" viewBox="0 0 32 32"><title>phone</title><path d="M22 20c-2 2-2 4-4 4s-4-2-6-4-4-4-4-6 2-2 4-4-4-8-6-8-6 6-6 6c0 4 4.109 12.109 8 16s12 8 16 8c0 0 6-4 6-6s-6-8-8-6z"/></symbol><symbol id="twitter" viewBox="0 0 32 32"><title>twitter</title><path d="M32 7.075a12.941 12.941 0 0 1-3.769 1.031 6.601 6.601 0 0 0 2.887-3.631 13.21 13.21 0 0 1-4.169 1.594A6.565 6.565 0 0 0 22.155 4a6.563 6.563 0 0 0-6.563 6.563c0 .512.056 1.012.169 1.494A18.635 18.635 0 0 1 2.23 5.195a6.56 6.56 0 0 0-.887 3.3 6.557 6.557 0 0 0 2.919 5.463 6.565 6.565 0 0 1-2.975-.819v.081a6.565 6.565 0 0 0 5.269 6.437 6.574 6.574 0 0 1-2.968.112 6.588 6.588 0 0 0 6.131 4.563 13.17 13.17 0 0 1-9.725 2.719 18.568 18.568 0 0 0 10.069 2.95c12.075 0 18.681-10.006 18.681-18.681 0-.287-.006-.569-.019-.85A13.216 13.216 0 0 0 32 7.076z"/></symbol><symbol id="vk" viewBox="0 0 32 32"><title>vk</title><path d="M29 0H3C1.35 0 0 1.35 0 3v26c0 1.65 1.35 3 3 3h26c1.65 0 3-1.35 3-3V3c0-1.65-1.35-3-3-3zm-3.081 22.4l-2.925.044s-.631.125-1.456-.444c-1.094-.75-2.125-2.706-2.931-2.45-.813.256-.788 2.012-.788 2.012s.006.375-.181.575c-.2.219-.6.262-.6.262h-1.306s-2.888.175-5.431-2.475c-2.775-2.887-5.225-8.619-5.225-8.619s-.144-.375.013-.556c.175-.206.644-.219.644-.219l3.131-.019s.294.05.506.206c.175.125.269.369.269.369s.506 1.281 1.175 2.438c1.306 2.256 1.919 2.75 2.362 2.513.644-.35.45-3.194.45-3.194s.012-1.031-.325-1.488c-.262-.356-.756-.463-.969-.488-.175-.025.113-.431.488-.619.563-.275 1.556-.294 2.731-.281.913.006 1.181.069 1.538.15 1.081.262.712 1.269.712 3.681 0 .775-.137 1.863.419 2.219.238.156.825.025 2.294-2.469.694-1.181 1.219-2.569 1.219-2.569s.113-.25.288-.356c.181-.106.425-.075.425-.075l3.294-.019s.988-.119 1.15.331c.169.469-.369 1.563-1.712 3.356-2.206 2.944-2.456 2.669-.619 4.369 1.75 1.625 2.113 2.419 2.175 2.519.712 1.2-.813 1.294-.813 1.294z"/></symbol></svg>
